%
M48
M72
T01C0.0150
T02C0.0400
T03C0.1300
%
T01
X3950Y6200
X4350Y8250
X4850Y8250
X5350Y8250
X5850Y8250
X6800Y8350
X6950Y9500
X7850Y8500
X7750Y7000
X9650Y9300
X10100Y11050
X10160Y11450
X10580Y11440
X10350Y12150
X11550Y10370
X12050Y10370
X11750Y12300
X13250Y14450
X13550Y15550
X14550Y16850
X13885Y17500
X12900Y17300
X14400Y12250
X13150Y9500
X13000Y8350
X14050Y8500
X13950Y7000
X12050Y8250
X11550Y8250
X11050Y8250
X10550Y8250
X10150Y6200
X8200Y12250
X7050Y14450
X7350Y15550
X8350Y16850
X7685Y17500
X6700Y17300
X5550Y12300
X5350Y10370
X5850Y10370
X4380Y11440
X3960Y11450
X3900Y11050
X4150Y12150
X3450Y9300
X3950Y31400
X4350Y33450
X4850Y33450
X5350Y33450
X5850Y33450
X6800Y33550
X6950Y34700
X7850Y33700
X7750Y32200
X9650Y34500
X10550Y33450
X11050Y33450
X11550Y33450
X12050Y33450
X13000Y33550
X14050Y33700
X13150Y34700
X12050Y35570
X11550Y35570
X10580Y36640
X10160Y36650
X10100Y36250
X10350Y37350
X11750Y37500
X13250Y39650
X13550Y40750
X14550Y42050
X13885Y42700
X12900Y42500
X14400Y37450
X15850Y34500
X16750Y33450
X17250Y33450
X17750Y33450
X18250Y33450
X19200Y33550
X19350Y34700
X18250Y35570
X17750Y35570
X16780Y36640
X16360Y36650
X16300Y36250
X16550Y37350
X17950Y37500
X19450Y39650
X19750Y40750
X20750Y42050
X20085Y42700
X19100Y42500
X20600Y37450
X22050Y34500
X22950Y33450
X23450Y33450
X23950Y33450
X24450Y33450
X25400Y33550
X25550Y34700
X26450Y33700
X26350Y32200
X28250Y34500
X29150Y33450
X29650Y33450
X30150Y33450
X30650Y33450
X31600Y33550
X32650Y33700
X31750Y34700
X30650Y35570
X30150Y35570
X29180Y36640
X28760Y36650
X28700Y36250
X28950Y37350
X30350Y37500
X31850Y39650
X32150Y40750
X33150Y42050
X32485Y42700
X31500Y42500
X33000Y37450
X32550Y32200
X28750Y31400
X26800Y37450
X25650Y39650
X25950Y40750
X26950Y42050
X26285Y42700
X25300Y42500
X24150Y37500
X23950Y35570
X24450Y35570
X22980Y36640
X22560Y36650
X22500Y36250
X22750Y37350
X20250Y33700
X20150Y32200
X22550Y31400
X16350Y31400
X13950Y32200
X10150Y31400
X8200Y37450
X7050Y39650
X7350Y40750
X8350Y42050
X7685Y42700
X6700Y42500
X5550Y37500
X5350Y35570
X5850Y35570
X4380Y36640
X3960Y36650
X3900Y36250
X4150Y37350
X3450Y34500
X16550Y12150
X16360Y11450
X16300Y11050
X16780Y11440
X17750Y10370
X18250Y10370
X19350Y9500
X19200Y8350
X18250Y8250
X17750Y8250
X17250Y8250
X16750Y8250
X15850Y9300
X16350Y6200
X17950Y12300
X19450Y14450
X19750Y15550
X19100Y17300
X20085Y17500
X20750Y16850
X20600Y12250
X22050Y9300
X22950Y8250
X23450Y8250
X23950Y8250
X24450Y8250
X25400Y8350
X25550Y9500
X26450Y8500
X26350Y7000
X28250Y9300
X29150Y8250
X29650Y8250
X30150Y8250
X30650Y8250
X31600Y8350
X32650Y8500
X31750Y9500
X30650Y10370
X30150Y10370
X29180Y11440
X28760Y11450
X28700Y11050
X28950Y12150
X30350Y12300
X31850Y14450
X32150Y15550
X33150Y16850
X32485Y17500
X31500Y17300
X33000Y12250
X32550Y7000
X28750Y6200
X26800Y12250
X25650Y14450
X25950Y15550
X26950Y16850
X26285Y17500
X25300Y17300
X24150Y12300
X23950Y10370
X24450Y10370
X22980Y11440
X22560Y11450
X22500Y11050
X22750Y12150
X20250Y8500
X20150Y7000
X22550Y6200
T02
X3350Y4500
X4350Y4500
X5350Y4500
X6350Y4500
X7350Y4500
X8350Y4500
X9550Y4500
X10550Y4500
X11550Y4500
X12550Y4500
X13550Y4500
X14550Y4500
X15750Y4500
X16750Y4500
X17750Y4500
X18750Y4500
X19750Y4500
X20750Y4500
X21950Y4500
X22950Y4500
X23950Y4500
X24950Y4500
X25950Y4500
X26950Y4500
X28150Y4500
X29150Y4500
X30150Y4500
X31150Y4500
X32150Y4500
X33150Y4500
X33150Y29700
X32150Y29700
X31150Y29700
X30150Y29700
X29150Y29700
X28150Y29700
X26950Y29700
X25950Y29700
X24950Y29700
X23950Y29700
X22950Y29700
X21950Y29700
X20750Y29700
X19750Y29700
X18750Y29700
X17750Y29700
X16750Y29700
X15750Y29700
X14550Y29700
X13550Y29700
X12550Y29700
X11550Y29700
X10550Y29700
X9550Y29700
X8350Y29700
X7350Y29700
X6350Y29700
X5350Y29700
X4350Y29700
X3350Y29700
T03
X5850Y26500
X12050Y26500
X18250Y26500
X24450Y26500
X30650Y26500
X30650Y51700
X24450Y51700
X18250Y51700
X12050Y51700
X5850Y51700
M30
