G75*
%MOIN*%
%OFA0B0*%
%FSLAX25Y25*%
%IPPOS*%
%LPD*%
%AMOC8*
5,1,8,0,0,1.08239X$1,22.5*
%
%ADD10C,0.00800*%
%ADD11C,0.01000*%
%ADD12C,0.01100*%
%ADD13C,0.00000*%
D10*
X0028500Y0040000D02*
X0028500Y0290000D01*
X0088500Y0289961D01*
X0088500Y0040000D01*
X0028500Y0040000D01*
X0090500Y0040000D02*
X0090500Y0290000D01*
X0150500Y0289961D01*
X0150500Y0040000D01*
X0090500Y0040000D01*
X0152500Y0040000D02*
X0152500Y0290000D01*
X0212500Y0289961D01*
X0212500Y0040000D01*
X0152500Y0040000D01*
X0214500Y0040000D02*
X0214500Y0290000D01*
X0274500Y0289961D01*
X0274500Y0040000D01*
X0214500Y0040000D01*
X0276500Y0040000D02*
X0276500Y0290000D01*
X0336500Y0289961D01*
X0336500Y0040000D01*
X0276500Y0040000D01*
X0276500Y0292000D02*
X0276500Y0542000D01*
X0336500Y0541961D01*
X0336500Y0292000D01*
X0276500Y0292000D01*
X0274500Y0292000D02*
X0274500Y0541961D01*
X0214500Y0542000D01*
X0214500Y0292000D01*
X0274500Y0292000D01*
X0212500Y0292000D02*
X0212500Y0541961D01*
X0152500Y0542000D01*
X0152500Y0292000D01*
X0212500Y0292000D01*
X0150500Y0292000D02*
X0150500Y0541961D01*
X0090500Y0542000D01*
X0090500Y0292000D01*
X0150500Y0292000D01*
X0088500Y0292000D02*
X0088500Y0541961D01*
X0028500Y0542000D01*
X0028500Y0292000D01*
X0088500Y0292000D01*
D11*
X0001500Y0291000D02*
X0403500Y0291000D01*
X0275500Y0566000D02*
X0275500Y0004000D01*
X0213500Y0002500D02*
X0213500Y0564500D01*
X0151500Y0564500D02*
X0151500Y0002500D01*
X0089500Y0001500D02*
X0089500Y0563500D01*
D12*
X0089878Y0570050D02*
X0086925Y0570050D01*
X0085941Y0571034D01*
X0085941Y0573003D01*
X0086925Y0573987D01*
X0089878Y0573987D01*
X0092386Y0573003D02*
X0092386Y0571034D01*
X0093371Y0570050D01*
X0095339Y0570050D01*
X0096323Y0571034D01*
X0096323Y0573003D01*
X0095339Y0573987D01*
X0093371Y0573987D01*
X0092386Y0573003D01*
X0098832Y0573987D02*
X0098832Y0570050D01*
X0098832Y0572018D02*
X0100800Y0573987D01*
X0101785Y0573987D01*
X0104203Y0573003D02*
X0105187Y0573987D01*
X0107156Y0573987D01*
X0108140Y0573003D01*
X0108140Y0572018D01*
X0104203Y0572018D01*
X0104203Y0571034D02*
X0104203Y0573003D01*
X0104203Y0571034D02*
X0105187Y0570050D01*
X0107156Y0570050D01*
X0083432Y0571034D02*
X0082448Y0570050D01*
X0079495Y0570050D01*
X0080480Y0572018D02*
X0079495Y0573003D01*
X0080480Y0573987D01*
X0083432Y0573987D01*
X0082448Y0572018D02*
X0080480Y0572018D01*
X0082448Y0572018D02*
X0083432Y0571034D01*
X0076987Y0573987D02*
X0075018Y0570050D01*
X0073050Y0573987D01*
X0134550Y0572987D02*
X0136518Y0569050D01*
X0138487Y0572987D01*
X0140995Y0572003D02*
X0141980Y0572987D01*
X0144932Y0572987D01*
X0143948Y0571018D02*
X0141980Y0571018D01*
X0140995Y0572003D01*
X0140995Y0569050D02*
X0143948Y0569050D01*
X0144932Y0570034D01*
X0143948Y0571018D01*
X0147441Y0570034D02*
X0148425Y0569050D01*
X0151378Y0569050D01*
X0153886Y0570034D02*
X0154871Y0569050D01*
X0156839Y0569050D01*
X0157823Y0570034D01*
X0157823Y0572003D01*
X0156839Y0572987D01*
X0154871Y0572987D01*
X0153886Y0572003D01*
X0153886Y0570034D01*
X0151378Y0572987D02*
X0148425Y0572987D01*
X0147441Y0572003D01*
X0147441Y0570034D01*
X0160332Y0569050D02*
X0160332Y0572987D01*
X0162300Y0572987D02*
X0160332Y0571018D01*
X0162300Y0572987D02*
X0163285Y0572987D01*
X0165703Y0572003D02*
X0166687Y0572987D01*
X0168656Y0572987D01*
X0169640Y0572003D01*
X0169640Y0571018D01*
X0165703Y0571018D01*
X0165703Y0570034D02*
X0165703Y0572003D01*
X0165703Y0570034D02*
X0166687Y0569050D01*
X0168656Y0569050D01*
X0194050Y0572487D02*
X0196018Y0568550D01*
X0197987Y0572487D01*
X0200495Y0571503D02*
X0201480Y0572487D01*
X0204432Y0572487D01*
X0203448Y0570518D02*
X0201480Y0570518D01*
X0200495Y0571503D01*
X0200495Y0568550D02*
X0203448Y0568550D01*
X0204432Y0569534D01*
X0203448Y0570518D01*
X0206941Y0569534D02*
X0207925Y0568550D01*
X0210878Y0568550D01*
X0213386Y0569534D02*
X0214371Y0568550D01*
X0216339Y0568550D01*
X0217323Y0569534D01*
X0217323Y0571503D01*
X0216339Y0572487D01*
X0214371Y0572487D01*
X0213386Y0571503D01*
X0213386Y0569534D01*
X0210878Y0572487D02*
X0207925Y0572487D01*
X0206941Y0571503D01*
X0206941Y0569534D01*
X0219832Y0568550D02*
X0219832Y0572487D01*
X0221800Y0572487D02*
X0222785Y0572487D01*
X0221800Y0572487D02*
X0219832Y0570518D01*
X0225203Y0570518D02*
X0229140Y0570518D01*
X0229140Y0571503D01*
X0228156Y0572487D01*
X0226187Y0572487D01*
X0225203Y0571503D01*
X0225203Y0569534D01*
X0226187Y0568550D01*
X0228156Y0568550D01*
X0262550Y0573987D02*
X0264518Y0570050D01*
X0266487Y0573987D01*
X0268995Y0573003D02*
X0269980Y0573987D01*
X0272932Y0573987D01*
X0271948Y0572018D02*
X0269980Y0572018D01*
X0268995Y0573003D01*
X0268995Y0570050D02*
X0271948Y0570050D01*
X0272932Y0571034D01*
X0271948Y0572018D01*
X0275441Y0571034D02*
X0276425Y0570050D01*
X0279378Y0570050D01*
X0281886Y0571034D02*
X0282871Y0570050D01*
X0284839Y0570050D01*
X0285823Y0571034D01*
X0285823Y0573003D01*
X0284839Y0573987D01*
X0282871Y0573987D01*
X0281886Y0573003D01*
X0281886Y0571034D01*
X0279378Y0573987D02*
X0276425Y0573987D01*
X0275441Y0573003D01*
X0275441Y0571034D01*
X0288332Y0570050D02*
X0288332Y0573987D01*
X0290300Y0573987D02*
X0291285Y0573987D01*
X0290300Y0573987D02*
X0288332Y0572018D01*
X0293703Y0572018D02*
X0297640Y0572018D01*
X0297640Y0573003D01*
X0296656Y0573987D01*
X0294687Y0573987D01*
X0293703Y0573003D01*
X0293703Y0571034D01*
X0294687Y0570050D01*
X0296656Y0570050D01*
X0361550Y0298987D02*
X0363518Y0295050D01*
X0365487Y0298987D01*
X0367995Y0298003D02*
X0368980Y0298987D01*
X0371932Y0298987D01*
X0370948Y0297018D02*
X0368980Y0297018D01*
X0367995Y0298003D01*
X0367995Y0295050D02*
X0370948Y0295050D01*
X0371932Y0296034D01*
X0370948Y0297018D01*
X0374441Y0296034D02*
X0375425Y0295050D01*
X0378378Y0295050D01*
X0380886Y0296034D02*
X0381871Y0295050D01*
X0383839Y0295050D01*
X0384823Y0296034D01*
X0384823Y0298003D01*
X0383839Y0298987D01*
X0381871Y0298987D01*
X0380886Y0298003D01*
X0380886Y0296034D01*
X0378378Y0298987D02*
X0375425Y0298987D01*
X0374441Y0298003D01*
X0374441Y0296034D01*
X0387332Y0295050D02*
X0387332Y0298987D01*
X0389300Y0298987D02*
X0387332Y0297018D01*
X0389300Y0298987D02*
X0390285Y0298987D01*
X0392703Y0298003D02*
X0393687Y0298987D01*
X0395656Y0298987D01*
X0396640Y0298003D01*
X0396640Y0297018D01*
X0392703Y0297018D01*
X0392703Y0296034D02*
X0392703Y0298003D01*
X0392703Y0296034D02*
X0393687Y0295050D01*
X0395656Y0295050D01*
D13*
X0300000Y0265000D02*
X0300002Y0265161D01*
X0300008Y0265321D01*
X0300018Y0265482D01*
X0300032Y0265642D01*
X0300050Y0265802D01*
X0300071Y0265961D01*
X0300097Y0266120D01*
X0300127Y0266278D01*
X0300160Y0266435D01*
X0300198Y0266592D01*
X0300239Y0266747D01*
X0300284Y0266901D01*
X0300333Y0267054D01*
X0300386Y0267206D01*
X0300442Y0267357D01*
X0300503Y0267506D01*
X0300566Y0267654D01*
X0300634Y0267800D01*
X0300705Y0267944D01*
X0300779Y0268086D01*
X0300857Y0268227D01*
X0300939Y0268365D01*
X0301024Y0268502D01*
X0301112Y0268636D01*
X0301204Y0268768D01*
X0301299Y0268898D01*
X0301397Y0269026D01*
X0301498Y0269151D01*
X0301602Y0269273D01*
X0301709Y0269393D01*
X0301819Y0269510D01*
X0301932Y0269625D01*
X0302048Y0269736D01*
X0302167Y0269845D01*
X0302288Y0269950D01*
X0302412Y0270053D01*
X0302538Y0270153D01*
X0302666Y0270249D01*
X0302797Y0270342D01*
X0302931Y0270432D01*
X0303066Y0270519D01*
X0303204Y0270602D01*
X0303343Y0270682D01*
X0303485Y0270758D01*
X0303628Y0270831D01*
X0303773Y0270900D01*
X0303920Y0270966D01*
X0304068Y0271028D01*
X0304218Y0271086D01*
X0304369Y0271141D01*
X0304522Y0271192D01*
X0304676Y0271239D01*
X0304831Y0271282D01*
X0304987Y0271321D01*
X0305143Y0271357D01*
X0305301Y0271388D01*
X0305459Y0271416D01*
X0305618Y0271440D01*
X0305778Y0271460D01*
X0305938Y0271476D01*
X0306098Y0271488D01*
X0306259Y0271496D01*
X0306420Y0271500D01*
X0306580Y0271500D01*
X0306741Y0271496D01*
X0306902Y0271488D01*
X0307062Y0271476D01*
X0307222Y0271460D01*
X0307382Y0271440D01*
X0307541Y0271416D01*
X0307699Y0271388D01*
X0307857Y0271357D01*
X0308013Y0271321D01*
X0308169Y0271282D01*
X0308324Y0271239D01*
X0308478Y0271192D01*
X0308631Y0271141D01*
X0308782Y0271086D01*
X0308932Y0271028D01*
X0309080Y0270966D01*
X0309227Y0270900D01*
X0309372Y0270831D01*
X0309515Y0270758D01*
X0309657Y0270682D01*
X0309796Y0270602D01*
X0309934Y0270519D01*
X0310069Y0270432D01*
X0310203Y0270342D01*
X0310334Y0270249D01*
X0310462Y0270153D01*
X0310588Y0270053D01*
X0310712Y0269950D01*
X0310833Y0269845D01*
X0310952Y0269736D01*
X0311068Y0269625D01*
X0311181Y0269510D01*
X0311291Y0269393D01*
X0311398Y0269273D01*
X0311502Y0269151D01*
X0311603Y0269026D01*
X0311701Y0268898D01*
X0311796Y0268768D01*
X0311888Y0268636D01*
X0311976Y0268502D01*
X0312061Y0268365D01*
X0312143Y0268227D01*
X0312221Y0268086D01*
X0312295Y0267944D01*
X0312366Y0267800D01*
X0312434Y0267654D01*
X0312497Y0267506D01*
X0312558Y0267357D01*
X0312614Y0267206D01*
X0312667Y0267054D01*
X0312716Y0266901D01*
X0312761Y0266747D01*
X0312802Y0266592D01*
X0312840Y0266435D01*
X0312873Y0266278D01*
X0312903Y0266120D01*
X0312929Y0265961D01*
X0312950Y0265802D01*
X0312968Y0265642D01*
X0312982Y0265482D01*
X0312992Y0265321D01*
X0312998Y0265161D01*
X0313000Y0265000D01*
X0312998Y0264839D01*
X0312992Y0264679D01*
X0312982Y0264518D01*
X0312968Y0264358D01*
X0312950Y0264198D01*
X0312929Y0264039D01*
X0312903Y0263880D01*
X0312873Y0263722D01*
X0312840Y0263565D01*
X0312802Y0263408D01*
X0312761Y0263253D01*
X0312716Y0263099D01*
X0312667Y0262946D01*
X0312614Y0262794D01*
X0312558Y0262643D01*
X0312497Y0262494D01*
X0312434Y0262346D01*
X0312366Y0262200D01*
X0312295Y0262056D01*
X0312221Y0261914D01*
X0312143Y0261773D01*
X0312061Y0261635D01*
X0311976Y0261498D01*
X0311888Y0261364D01*
X0311796Y0261232D01*
X0311701Y0261102D01*
X0311603Y0260974D01*
X0311502Y0260849D01*
X0311398Y0260727D01*
X0311291Y0260607D01*
X0311181Y0260490D01*
X0311068Y0260375D01*
X0310952Y0260264D01*
X0310833Y0260155D01*
X0310712Y0260050D01*
X0310588Y0259947D01*
X0310462Y0259847D01*
X0310334Y0259751D01*
X0310203Y0259658D01*
X0310069Y0259568D01*
X0309934Y0259481D01*
X0309796Y0259398D01*
X0309657Y0259318D01*
X0309515Y0259242D01*
X0309372Y0259169D01*
X0309227Y0259100D01*
X0309080Y0259034D01*
X0308932Y0258972D01*
X0308782Y0258914D01*
X0308631Y0258859D01*
X0308478Y0258808D01*
X0308324Y0258761D01*
X0308169Y0258718D01*
X0308013Y0258679D01*
X0307857Y0258643D01*
X0307699Y0258612D01*
X0307541Y0258584D01*
X0307382Y0258560D01*
X0307222Y0258540D01*
X0307062Y0258524D01*
X0306902Y0258512D01*
X0306741Y0258504D01*
X0306580Y0258500D01*
X0306420Y0258500D01*
X0306259Y0258504D01*
X0306098Y0258512D01*
X0305938Y0258524D01*
X0305778Y0258540D01*
X0305618Y0258560D01*
X0305459Y0258584D01*
X0305301Y0258612D01*
X0305143Y0258643D01*
X0304987Y0258679D01*
X0304831Y0258718D01*
X0304676Y0258761D01*
X0304522Y0258808D01*
X0304369Y0258859D01*
X0304218Y0258914D01*
X0304068Y0258972D01*
X0303920Y0259034D01*
X0303773Y0259100D01*
X0303628Y0259169D01*
X0303485Y0259242D01*
X0303343Y0259318D01*
X0303204Y0259398D01*
X0303066Y0259481D01*
X0302931Y0259568D01*
X0302797Y0259658D01*
X0302666Y0259751D01*
X0302538Y0259847D01*
X0302412Y0259947D01*
X0302288Y0260050D01*
X0302167Y0260155D01*
X0302048Y0260264D01*
X0301932Y0260375D01*
X0301819Y0260490D01*
X0301709Y0260607D01*
X0301602Y0260727D01*
X0301498Y0260849D01*
X0301397Y0260974D01*
X0301299Y0261102D01*
X0301204Y0261232D01*
X0301112Y0261364D01*
X0301024Y0261498D01*
X0300939Y0261635D01*
X0300857Y0261773D01*
X0300779Y0261914D01*
X0300705Y0262056D01*
X0300634Y0262200D01*
X0300566Y0262346D01*
X0300503Y0262494D01*
X0300442Y0262643D01*
X0300386Y0262794D01*
X0300333Y0262946D01*
X0300284Y0263099D01*
X0300239Y0263253D01*
X0300198Y0263408D01*
X0300160Y0263565D01*
X0300127Y0263722D01*
X0300097Y0263880D01*
X0300071Y0264039D01*
X0300050Y0264198D01*
X0300032Y0264358D01*
X0300018Y0264518D01*
X0300008Y0264679D01*
X0300002Y0264839D01*
X0300000Y0265000D01*
X0238000Y0265000D02*
X0238002Y0265161D01*
X0238008Y0265321D01*
X0238018Y0265482D01*
X0238032Y0265642D01*
X0238050Y0265802D01*
X0238071Y0265961D01*
X0238097Y0266120D01*
X0238127Y0266278D01*
X0238160Y0266435D01*
X0238198Y0266592D01*
X0238239Y0266747D01*
X0238284Y0266901D01*
X0238333Y0267054D01*
X0238386Y0267206D01*
X0238442Y0267357D01*
X0238503Y0267506D01*
X0238566Y0267654D01*
X0238634Y0267800D01*
X0238705Y0267944D01*
X0238779Y0268086D01*
X0238857Y0268227D01*
X0238939Y0268365D01*
X0239024Y0268502D01*
X0239112Y0268636D01*
X0239204Y0268768D01*
X0239299Y0268898D01*
X0239397Y0269026D01*
X0239498Y0269151D01*
X0239602Y0269273D01*
X0239709Y0269393D01*
X0239819Y0269510D01*
X0239932Y0269625D01*
X0240048Y0269736D01*
X0240167Y0269845D01*
X0240288Y0269950D01*
X0240412Y0270053D01*
X0240538Y0270153D01*
X0240666Y0270249D01*
X0240797Y0270342D01*
X0240931Y0270432D01*
X0241066Y0270519D01*
X0241204Y0270602D01*
X0241343Y0270682D01*
X0241485Y0270758D01*
X0241628Y0270831D01*
X0241773Y0270900D01*
X0241920Y0270966D01*
X0242068Y0271028D01*
X0242218Y0271086D01*
X0242369Y0271141D01*
X0242522Y0271192D01*
X0242676Y0271239D01*
X0242831Y0271282D01*
X0242987Y0271321D01*
X0243143Y0271357D01*
X0243301Y0271388D01*
X0243459Y0271416D01*
X0243618Y0271440D01*
X0243778Y0271460D01*
X0243938Y0271476D01*
X0244098Y0271488D01*
X0244259Y0271496D01*
X0244420Y0271500D01*
X0244580Y0271500D01*
X0244741Y0271496D01*
X0244902Y0271488D01*
X0245062Y0271476D01*
X0245222Y0271460D01*
X0245382Y0271440D01*
X0245541Y0271416D01*
X0245699Y0271388D01*
X0245857Y0271357D01*
X0246013Y0271321D01*
X0246169Y0271282D01*
X0246324Y0271239D01*
X0246478Y0271192D01*
X0246631Y0271141D01*
X0246782Y0271086D01*
X0246932Y0271028D01*
X0247080Y0270966D01*
X0247227Y0270900D01*
X0247372Y0270831D01*
X0247515Y0270758D01*
X0247657Y0270682D01*
X0247796Y0270602D01*
X0247934Y0270519D01*
X0248069Y0270432D01*
X0248203Y0270342D01*
X0248334Y0270249D01*
X0248462Y0270153D01*
X0248588Y0270053D01*
X0248712Y0269950D01*
X0248833Y0269845D01*
X0248952Y0269736D01*
X0249068Y0269625D01*
X0249181Y0269510D01*
X0249291Y0269393D01*
X0249398Y0269273D01*
X0249502Y0269151D01*
X0249603Y0269026D01*
X0249701Y0268898D01*
X0249796Y0268768D01*
X0249888Y0268636D01*
X0249976Y0268502D01*
X0250061Y0268365D01*
X0250143Y0268227D01*
X0250221Y0268086D01*
X0250295Y0267944D01*
X0250366Y0267800D01*
X0250434Y0267654D01*
X0250497Y0267506D01*
X0250558Y0267357D01*
X0250614Y0267206D01*
X0250667Y0267054D01*
X0250716Y0266901D01*
X0250761Y0266747D01*
X0250802Y0266592D01*
X0250840Y0266435D01*
X0250873Y0266278D01*
X0250903Y0266120D01*
X0250929Y0265961D01*
X0250950Y0265802D01*
X0250968Y0265642D01*
X0250982Y0265482D01*
X0250992Y0265321D01*
X0250998Y0265161D01*
X0251000Y0265000D01*
X0250998Y0264839D01*
X0250992Y0264679D01*
X0250982Y0264518D01*
X0250968Y0264358D01*
X0250950Y0264198D01*
X0250929Y0264039D01*
X0250903Y0263880D01*
X0250873Y0263722D01*
X0250840Y0263565D01*
X0250802Y0263408D01*
X0250761Y0263253D01*
X0250716Y0263099D01*
X0250667Y0262946D01*
X0250614Y0262794D01*
X0250558Y0262643D01*
X0250497Y0262494D01*
X0250434Y0262346D01*
X0250366Y0262200D01*
X0250295Y0262056D01*
X0250221Y0261914D01*
X0250143Y0261773D01*
X0250061Y0261635D01*
X0249976Y0261498D01*
X0249888Y0261364D01*
X0249796Y0261232D01*
X0249701Y0261102D01*
X0249603Y0260974D01*
X0249502Y0260849D01*
X0249398Y0260727D01*
X0249291Y0260607D01*
X0249181Y0260490D01*
X0249068Y0260375D01*
X0248952Y0260264D01*
X0248833Y0260155D01*
X0248712Y0260050D01*
X0248588Y0259947D01*
X0248462Y0259847D01*
X0248334Y0259751D01*
X0248203Y0259658D01*
X0248069Y0259568D01*
X0247934Y0259481D01*
X0247796Y0259398D01*
X0247657Y0259318D01*
X0247515Y0259242D01*
X0247372Y0259169D01*
X0247227Y0259100D01*
X0247080Y0259034D01*
X0246932Y0258972D01*
X0246782Y0258914D01*
X0246631Y0258859D01*
X0246478Y0258808D01*
X0246324Y0258761D01*
X0246169Y0258718D01*
X0246013Y0258679D01*
X0245857Y0258643D01*
X0245699Y0258612D01*
X0245541Y0258584D01*
X0245382Y0258560D01*
X0245222Y0258540D01*
X0245062Y0258524D01*
X0244902Y0258512D01*
X0244741Y0258504D01*
X0244580Y0258500D01*
X0244420Y0258500D01*
X0244259Y0258504D01*
X0244098Y0258512D01*
X0243938Y0258524D01*
X0243778Y0258540D01*
X0243618Y0258560D01*
X0243459Y0258584D01*
X0243301Y0258612D01*
X0243143Y0258643D01*
X0242987Y0258679D01*
X0242831Y0258718D01*
X0242676Y0258761D01*
X0242522Y0258808D01*
X0242369Y0258859D01*
X0242218Y0258914D01*
X0242068Y0258972D01*
X0241920Y0259034D01*
X0241773Y0259100D01*
X0241628Y0259169D01*
X0241485Y0259242D01*
X0241343Y0259318D01*
X0241204Y0259398D01*
X0241066Y0259481D01*
X0240931Y0259568D01*
X0240797Y0259658D01*
X0240666Y0259751D01*
X0240538Y0259847D01*
X0240412Y0259947D01*
X0240288Y0260050D01*
X0240167Y0260155D01*
X0240048Y0260264D01*
X0239932Y0260375D01*
X0239819Y0260490D01*
X0239709Y0260607D01*
X0239602Y0260727D01*
X0239498Y0260849D01*
X0239397Y0260974D01*
X0239299Y0261102D01*
X0239204Y0261232D01*
X0239112Y0261364D01*
X0239024Y0261498D01*
X0238939Y0261635D01*
X0238857Y0261773D01*
X0238779Y0261914D01*
X0238705Y0262056D01*
X0238634Y0262200D01*
X0238566Y0262346D01*
X0238503Y0262494D01*
X0238442Y0262643D01*
X0238386Y0262794D01*
X0238333Y0262946D01*
X0238284Y0263099D01*
X0238239Y0263253D01*
X0238198Y0263408D01*
X0238160Y0263565D01*
X0238127Y0263722D01*
X0238097Y0263880D01*
X0238071Y0264039D01*
X0238050Y0264198D01*
X0238032Y0264358D01*
X0238018Y0264518D01*
X0238008Y0264679D01*
X0238002Y0264839D01*
X0238000Y0265000D01*
X0176000Y0265000D02*
X0176002Y0265161D01*
X0176008Y0265321D01*
X0176018Y0265482D01*
X0176032Y0265642D01*
X0176050Y0265802D01*
X0176071Y0265961D01*
X0176097Y0266120D01*
X0176127Y0266278D01*
X0176160Y0266435D01*
X0176198Y0266592D01*
X0176239Y0266747D01*
X0176284Y0266901D01*
X0176333Y0267054D01*
X0176386Y0267206D01*
X0176442Y0267357D01*
X0176503Y0267506D01*
X0176566Y0267654D01*
X0176634Y0267800D01*
X0176705Y0267944D01*
X0176779Y0268086D01*
X0176857Y0268227D01*
X0176939Y0268365D01*
X0177024Y0268502D01*
X0177112Y0268636D01*
X0177204Y0268768D01*
X0177299Y0268898D01*
X0177397Y0269026D01*
X0177498Y0269151D01*
X0177602Y0269273D01*
X0177709Y0269393D01*
X0177819Y0269510D01*
X0177932Y0269625D01*
X0178048Y0269736D01*
X0178167Y0269845D01*
X0178288Y0269950D01*
X0178412Y0270053D01*
X0178538Y0270153D01*
X0178666Y0270249D01*
X0178797Y0270342D01*
X0178931Y0270432D01*
X0179066Y0270519D01*
X0179204Y0270602D01*
X0179343Y0270682D01*
X0179485Y0270758D01*
X0179628Y0270831D01*
X0179773Y0270900D01*
X0179920Y0270966D01*
X0180068Y0271028D01*
X0180218Y0271086D01*
X0180369Y0271141D01*
X0180522Y0271192D01*
X0180676Y0271239D01*
X0180831Y0271282D01*
X0180987Y0271321D01*
X0181143Y0271357D01*
X0181301Y0271388D01*
X0181459Y0271416D01*
X0181618Y0271440D01*
X0181778Y0271460D01*
X0181938Y0271476D01*
X0182098Y0271488D01*
X0182259Y0271496D01*
X0182420Y0271500D01*
X0182580Y0271500D01*
X0182741Y0271496D01*
X0182902Y0271488D01*
X0183062Y0271476D01*
X0183222Y0271460D01*
X0183382Y0271440D01*
X0183541Y0271416D01*
X0183699Y0271388D01*
X0183857Y0271357D01*
X0184013Y0271321D01*
X0184169Y0271282D01*
X0184324Y0271239D01*
X0184478Y0271192D01*
X0184631Y0271141D01*
X0184782Y0271086D01*
X0184932Y0271028D01*
X0185080Y0270966D01*
X0185227Y0270900D01*
X0185372Y0270831D01*
X0185515Y0270758D01*
X0185657Y0270682D01*
X0185796Y0270602D01*
X0185934Y0270519D01*
X0186069Y0270432D01*
X0186203Y0270342D01*
X0186334Y0270249D01*
X0186462Y0270153D01*
X0186588Y0270053D01*
X0186712Y0269950D01*
X0186833Y0269845D01*
X0186952Y0269736D01*
X0187068Y0269625D01*
X0187181Y0269510D01*
X0187291Y0269393D01*
X0187398Y0269273D01*
X0187502Y0269151D01*
X0187603Y0269026D01*
X0187701Y0268898D01*
X0187796Y0268768D01*
X0187888Y0268636D01*
X0187976Y0268502D01*
X0188061Y0268365D01*
X0188143Y0268227D01*
X0188221Y0268086D01*
X0188295Y0267944D01*
X0188366Y0267800D01*
X0188434Y0267654D01*
X0188497Y0267506D01*
X0188558Y0267357D01*
X0188614Y0267206D01*
X0188667Y0267054D01*
X0188716Y0266901D01*
X0188761Y0266747D01*
X0188802Y0266592D01*
X0188840Y0266435D01*
X0188873Y0266278D01*
X0188903Y0266120D01*
X0188929Y0265961D01*
X0188950Y0265802D01*
X0188968Y0265642D01*
X0188982Y0265482D01*
X0188992Y0265321D01*
X0188998Y0265161D01*
X0189000Y0265000D01*
X0188998Y0264839D01*
X0188992Y0264679D01*
X0188982Y0264518D01*
X0188968Y0264358D01*
X0188950Y0264198D01*
X0188929Y0264039D01*
X0188903Y0263880D01*
X0188873Y0263722D01*
X0188840Y0263565D01*
X0188802Y0263408D01*
X0188761Y0263253D01*
X0188716Y0263099D01*
X0188667Y0262946D01*
X0188614Y0262794D01*
X0188558Y0262643D01*
X0188497Y0262494D01*
X0188434Y0262346D01*
X0188366Y0262200D01*
X0188295Y0262056D01*
X0188221Y0261914D01*
X0188143Y0261773D01*
X0188061Y0261635D01*
X0187976Y0261498D01*
X0187888Y0261364D01*
X0187796Y0261232D01*
X0187701Y0261102D01*
X0187603Y0260974D01*
X0187502Y0260849D01*
X0187398Y0260727D01*
X0187291Y0260607D01*
X0187181Y0260490D01*
X0187068Y0260375D01*
X0186952Y0260264D01*
X0186833Y0260155D01*
X0186712Y0260050D01*
X0186588Y0259947D01*
X0186462Y0259847D01*
X0186334Y0259751D01*
X0186203Y0259658D01*
X0186069Y0259568D01*
X0185934Y0259481D01*
X0185796Y0259398D01*
X0185657Y0259318D01*
X0185515Y0259242D01*
X0185372Y0259169D01*
X0185227Y0259100D01*
X0185080Y0259034D01*
X0184932Y0258972D01*
X0184782Y0258914D01*
X0184631Y0258859D01*
X0184478Y0258808D01*
X0184324Y0258761D01*
X0184169Y0258718D01*
X0184013Y0258679D01*
X0183857Y0258643D01*
X0183699Y0258612D01*
X0183541Y0258584D01*
X0183382Y0258560D01*
X0183222Y0258540D01*
X0183062Y0258524D01*
X0182902Y0258512D01*
X0182741Y0258504D01*
X0182580Y0258500D01*
X0182420Y0258500D01*
X0182259Y0258504D01*
X0182098Y0258512D01*
X0181938Y0258524D01*
X0181778Y0258540D01*
X0181618Y0258560D01*
X0181459Y0258584D01*
X0181301Y0258612D01*
X0181143Y0258643D01*
X0180987Y0258679D01*
X0180831Y0258718D01*
X0180676Y0258761D01*
X0180522Y0258808D01*
X0180369Y0258859D01*
X0180218Y0258914D01*
X0180068Y0258972D01*
X0179920Y0259034D01*
X0179773Y0259100D01*
X0179628Y0259169D01*
X0179485Y0259242D01*
X0179343Y0259318D01*
X0179204Y0259398D01*
X0179066Y0259481D01*
X0178931Y0259568D01*
X0178797Y0259658D01*
X0178666Y0259751D01*
X0178538Y0259847D01*
X0178412Y0259947D01*
X0178288Y0260050D01*
X0178167Y0260155D01*
X0178048Y0260264D01*
X0177932Y0260375D01*
X0177819Y0260490D01*
X0177709Y0260607D01*
X0177602Y0260727D01*
X0177498Y0260849D01*
X0177397Y0260974D01*
X0177299Y0261102D01*
X0177204Y0261232D01*
X0177112Y0261364D01*
X0177024Y0261498D01*
X0176939Y0261635D01*
X0176857Y0261773D01*
X0176779Y0261914D01*
X0176705Y0262056D01*
X0176634Y0262200D01*
X0176566Y0262346D01*
X0176503Y0262494D01*
X0176442Y0262643D01*
X0176386Y0262794D01*
X0176333Y0262946D01*
X0176284Y0263099D01*
X0176239Y0263253D01*
X0176198Y0263408D01*
X0176160Y0263565D01*
X0176127Y0263722D01*
X0176097Y0263880D01*
X0176071Y0264039D01*
X0176050Y0264198D01*
X0176032Y0264358D01*
X0176018Y0264518D01*
X0176008Y0264679D01*
X0176002Y0264839D01*
X0176000Y0265000D01*
X0114000Y0265000D02*
X0114002Y0265161D01*
X0114008Y0265321D01*
X0114018Y0265482D01*
X0114032Y0265642D01*
X0114050Y0265802D01*
X0114071Y0265961D01*
X0114097Y0266120D01*
X0114127Y0266278D01*
X0114160Y0266435D01*
X0114198Y0266592D01*
X0114239Y0266747D01*
X0114284Y0266901D01*
X0114333Y0267054D01*
X0114386Y0267206D01*
X0114442Y0267357D01*
X0114503Y0267506D01*
X0114566Y0267654D01*
X0114634Y0267800D01*
X0114705Y0267944D01*
X0114779Y0268086D01*
X0114857Y0268227D01*
X0114939Y0268365D01*
X0115024Y0268502D01*
X0115112Y0268636D01*
X0115204Y0268768D01*
X0115299Y0268898D01*
X0115397Y0269026D01*
X0115498Y0269151D01*
X0115602Y0269273D01*
X0115709Y0269393D01*
X0115819Y0269510D01*
X0115932Y0269625D01*
X0116048Y0269736D01*
X0116167Y0269845D01*
X0116288Y0269950D01*
X0116412Y0270053D01*
X0116538Y0270153D01*
X0116666Y0270249D01*
X0116797Y0270342D01*
X0116931Y0270432D01*
X0117066Y0270519D01*
X0117204Y0270602D01*
X0117343Y0270682D01*
X0117485Y0270758D01*
X0117628Y0270831D01*
X0117773Y0270900D01*
X0117920Y0270966D01*
X0118068Y0271028D01*
X0118218Y0271086D01*
X0118369Y0271141D01*
X0118522Y0271192D01*
X0118676Y0271239D01*
X0118831Y0271282D01*
X0118987Y0271321D01*
X0119143Y0271357D01*
X0119301Y0271388D01*
X0119459Y0271416D01*
X0119618Y0271440D01*
X0119778Y0271460D01*
X0119938Y0271476D01*
X0120098Y0271488D01*
X0120259Y0271496D01*
X0120420Y0271500D01*
X0120580Y0271500D01*
X0120741Y0271496D01*
X0120902Y0271488D01*
X0121062Y0271476D01*
X0121222Y0271460D01*
X0121382Y0271440D01*
X0121541Y0271416D01*
X0121699Y0271388D01*
X0121857Y0271357D01*
X0122013Y0271321D01*
X0122169Y0271282D01*
X0122324Y0271239D01*
X0122478Y0271192D01*
X0122631Y0271141D01*
X0122782Y0271086D01*
X0122932Y0271028D01*
X0123080Y0270966D01*
X0123227Y0270900D01*
X0123372Y0270831D01*
X0123515Y0270758D01*
X0123657Y0270682D01*
X0123796Y0270602D01*
X0123934Y0270519D01*
X0124069Y0270432D01*
X0124203Y0270342D01*
X0124334Y0270249D01*
X0124462Y0270153D01*
X0124588Y0270053D01*
X0124712Y0269950D01*
X0124833Y0269845D01*
X0124952Y0269736D01*
X0125068Y0269625D01*
X0125181Y0269510D01*
X0125291Y0269393D01*
X0125398Y0269273D01*
X0125502Y0269151D01*
X0125603Y0269026D01*
X0125701Y0268898D01*
X0125796Y0268768D01*
X0125888Y0268636D01*
X0125976Y0268502D01*
X0126061Y0268365D01*
X0126143Y0268227D01*
X0126221Y0268086D01*
X0126295Y0267944D01*
X0126366Y0267800D01*
X0126434Y0267654D01*
X0126497Y0267506D01*
X0126558Y0267357D01*
X0126614Y0267206D01*
X0126667Y0267054D01*
X0126716Y0266901D01*
X0126761Y0266747D01*
X0126802Y0266592D01*
X0126840Y0266435D01*
X0126873Y0266278D01*
X0126903Y0266120D01*
X0126929Y0265961D01*
X0126950Y0265802D01*
X0126968Y0265642D01*
X0126982Y0265482D01*
X0126992Y0265321D01*
X0126998Y0265161D01*
X0127000Y0265000D01*
X0126998Y0264839D01*
X0126992Y0264679D01*
X0126982Y0264518D01*
X0126968Y0264358D01*
X0126950Y0264198D01*
X0126929Y0264039D01*
X0126903Y0263880D01*
X0126873Y0263722D01*
X0126840Y0263565D01*
X0126802Y0263408D01*
X0126761Y0263253D01*
X0126716Y0263099D01*
X0126667Y0262946D01*
X0126614Y0262794D01*
X0126558Y0262643D01*
X0126497Y0262494D01*
X0126434Y0262346D01*
X0126366Y0262200D01*
X0126295Y0262056D01*
X0126221Y0261914D01*
X0126143Y0261773D01*
X0126061Y0261635D01*
X0125976Y0261498D01*
X0125888Y0261364D01*
X0125796Y0261232D01*
X0125701Y0261102D01*
X0125603Y0260974D01*
X0125502Y0260849D01*
X0125398Y0260727D01*
X0125291Y0260607D01*
X0125181Y0260490D01*
X0125068Y0260375D01*
X0124952Y0260264D01*
X0124833Y0260155D01*
X0124712Y0260050D01*
X0124588Y0259947D01*
X0124462Y0259847D01*
X0124334Y0259751D01*
X0124203Y0259658D01*
X0124069Y0259568D01*
X0123934Y0259481D01*
X0123796Y0259398D01*
X0123657Y0259318D01*
X0123515Y0259242D01*
X0123372Y0259169D01*
X0123227Y0259100D01*
X0123080Y0259034D01*
X0122932Y0258972D01*
X0122782Y0258914D01*
X0122631Y0258859D01*
X0122478Y0258808D01*
X0122324Y0258761D01*
X0122169Y0258718D01*
X0122013Y0258679D01*
X0121857Y0258643D01*
X0121699Y0258612D01*
X0121541Y0258584D01*
X0121382Y0258560D01*
X0121222Y0258540D01*
X0121062Y0258524D01*
X0120902Y0258512D01*
X0120741Y0258504D01*
X0120580Y0258500D01*
X0120420Y0258500D01*
X0120259Y0258504D01*
X0120098Y0258512D01*
X0119938Y0258524D01*
X0119778Y0258540D01*
X0119618Y0258560D01*
X0119459Y0258584D01*
X0119301Y0258612D01*
X0119143Y0258643D01*
X0118987Y0258679D01*
X0118831Y0258718D01*
X0118676Y0258761D01*
X0118522Y0258808D01*
X0118369Y0258859D01*
X0118218Y0258914D01*
X0118068Y0258972D01*
X0117920Y0259034D01*
X0117773Y0259100D01*
X0117628Y0259169D01*
X0117485Y0259242D01*
X0117343Y0259318D01*
X0117204Y0259398D01*
X0117066Y0259481D01*
X0116931Y0259568D01*
X0116797Y0259658D01*
X0116666Y0259751D01*
X0116538Y0259847D01*
X0116412Y0259947D01*
X0116288Y0260050D01*
X0116167Y0260155D01*
X0116048Y0260264D01*
X0115932Y0260375D01*
X0115819Y0260490D01*
X0115709Y0260607D01*
X0115602Y0260727D01*
X0115498Y0260849D01*
X0115397Y0260974D01*
X0115299Y0261102D01*
X0115204Y0261232D01*
X0115112Y0261364D01*
X0115024Y0261498D01*
X0114939Y0261635D01*
X0114857Y0261773D01*
X0114779Y0261914D01*
X0114705Y0262056D01*
X0114634Y0262200D01*
X0114566Y0262346D01*
X0114503Y0262494D01*
X0114442Y0262643D01*
X0114386Y0262794D01*
X0114333Y0262946D01*
X0114284Y0263099D01*
X0114239Y0263253D01*
X0114198Y0263408D01*
X0114160Y0263565D01*
X0114127Y0263722D01*
X0114097Y0263880D01*
X0114071Y0264039D01*
X0114050Y0264198D01*
X0114032Y0264358D01*
X0114018Y0264518D01*
X0114008Y0264679D01*
X0114002Y0264839D01*
X0114000Y0265000D01*
X0052000Y0265000D02*
X0052002Y0265161D01*
X0052008Y0265321D01*
X0052018Y0265482D01*
X0052032Y0265642D01*
X0052050Y0265802D01*
X0052071Y0265961D01*
X0052097Y0266120D01*
X0052127Y0266278D01*
X0052160Y0266435D01*
X0052198Y0266592D01*
X0052239Y0266747D01*
X0052284Y0266901D01*
X0052333Y0267054D01*
X0052386Y0267206D01*
X0052442Y0267357D01*
X0052503Y0267506D01*
X0052566Y0267654D01*
X0052634Y0267800D01*
X0052705Y0267944D01*
X0052779Y0268086D01*
X0052857Y0268227D01*
X0052939Y0268365D01*
X0053024Y0268502D01*
X0053112Y0268636D01*
X0053204Y0268768D01*
X0053299Y0268898D01*
X0053397Y0269026D01*
X0053498Y0269151D01*
X0053602Y0269273D01*
X0053709Y0269393D01*
X0053819Y0269510D01*
X0053932Y0269625D01*
X0054048Y0269736D01*
X0054167Y0269845D01*
X0054288Y0269950D01*
X0054412Y0270053D01*
X0054538Y0270153D01*
X0054666Y0270249D01*
X0054797Y0270342D01*
X0054931Y0270432D01*
X0055066Y0270519D01*
X0055204Y0270602D01*
X0055343Y0270682D01*
X0055485Y0270758D01*
X0055628Y0270831D01*
X0055773Y0270900D01*
X0055920Y0270966D01*
X0056068Y0271028D01*
X0056218Y0271086D01*
X0056369Y0271141D01*
X0056522Y0271192D01*
X0056676Y0271239D01*
X0056831Y0271282D01*
X0056987Y0271321D01*
X0057143Y0271357D01*
X0057301Y0271388D01*
X0057459Y0271416D01*
X0057618Y0271440D01*
X0057778Y0271460D01*
X0057938Y0271476D01*
X0058098Y0271488D01*
X0058259Y0271496D01*
X0058420Y0271500D01*
X0058580Y0271500D01*
X0058741Y0271496D01*
X0058902Y0271488D01*
X0059062Y0271476D01*
X0059222Y0271460D01*
X0059382Y0271440D01*
X0059541Y0271416D01*
X0059699Y0271388D01*
X0059857Y0271357D01*
X0060013Y0271321D01*
X0060169Y0271282D01*
X0060324Y0271239D01*
X0060478Y0271192D01*
X0060631Y0271141D01*
X0060782Y0271086D01*
X0060932Y0271028D01*
X0061080Y0270966D01*
X0061227Y0270900D01*
X0061372Y0270831D01*
X0061515Y0270758D01*
X0061657Y0270682D01*
X0061796Y0270602D01*
X0061934Y0270519D01*
X0062069Y0270432D01*
X0062203Y0270342D01*
X0062334Y0270249D01*
X0062462Y0270153D01*
X0062588Y0270053D01*
X0062712Y0269950D01*
X0062833Y0269845D01*
X0062952Y0269736D01*
X0063068Y0269625D01*
X0063181Y0269510D01*
X0063291Y0269393D01*
X0063398Y0269273D01*
X0063502Y0269151D01*
X0063603Y0269026D01*
X0063701Y0268898D01*
X0063796Y0268768D01*
X0063888Y0268636D01*
X0063976Y0268502D01*
X0064061Y0268365D01*
X0064143Y0268227D01*
X0064221Y0268086D01*
X0064295Y0267944D01*
X0064366Y0267800D01*
X0064434Y0267654D01*
X0064497Y0267506D01*
X0064558Y0267357D01*
X0064614Y0267206D01*
X0064667Y0267054D01*
X0064716Y0266901D01*
X0064761Y0266747D01*
X0064802Y0266592D01*
X0064840Y0266435D01*
X0064873Y0266278D01*
X0064903Y0266120D01*
X0064929Y0265961D01*
X0064950Y0265802D01*
X0064968Y0265642D01*
X0064982Y0265482D01*
X0064992Y0265321D01*
X0064998Y0265161D01*
X0065000Y0265000D01*
X0064998Y0264839D01*
X0064992Y0264679D01*
X0064982Y0264518D01*
X0064968Y0264358D01*
X0064950Y0264198D01*
X0064929Y0264039D01*
X0064903Y0263880D01*
X0064873Y0263722D01*
X0064840Y0263565D01*
X0064802Y0263408D01*
X0064761Y0263253D01*
X0064716Y0263099D01*
X0064667Y0262946D01*
X0064614Y0262794D01*
X0064558Y0262643D01*
X0064497Y0262494D01*
X0064434Y0262346D01*
X0064366Y0262200D01*
X0064295Y0262056D01*
X0064221Y0261914D01*
X0064143Y0261773D01*
X0064061Y0261635D01*
X0063976Y0261498D01*
X0063888Y0261364D01*
X0063796Y0261232D01*
X0063701Y0261102D01*
X0063603Y0260974D01*
X0063502Y0260849D01*
X0063398Y0260727D01*
X0063291Y0260607D01*
X0063181Y0260490D01*
X0063068Y0260375D01*
X0062952Y0260264D01*
X0062833Y0260155D01*
X0062712Y0260050D01*
X0062588Y0259947D01*
X0062462Y0259847D01*
X0062334Y0259751D01*
X0062203Y0259658D01*
X0062069Y0259568D01*
X0061934Y0259481D01*
X0061796Y0259398D01*
X0061657Y0259318D01*
X0061515Y0259242D01*
X0061372Y0259169D01*
X0061227Y0259100D01*
X0061080Y0259034D01*
X0060932Y0258972D01*
X0060782Y0258914D01*
X0060631Y0258859D01*
X0060478Y0258808D01*
X0060324Y0258761D01*
X0060169Y0258718D01*
X0060013Y0258679D01*
X0059857Y0258643D01*
X0059699Y0258612D01*
X0059541Y0258584D01*
X0059382Y0258560D01*
X0059222Y0258540D01*
X0059062Y0258524D01*
X0058902Y0258512D01*
X0058741Y0258504D01*
X0058580Y0258500D01*
X0058420Y0258500D01*
X0058259Y0258504D01*
X0058098Y0258512D01*
X0057938Y0258524D01*
X0057778Y0258540D01*
X0057618Y0258560D01*
X0057459Y0258584D01*
X0057301Y0258612D01*
X0057143Y0258643D01*
X0056987Y0258679D01*
X0056831Y0258718D01*
X0056676Y0258761D01*
X0056522Y0258808D01*
X0056369Y0258859D01*
X0056218Y0258914D01*
X0056068Y0258972D01*
X0055920Y0259034D01*
X0055773Y0259100D01*
X0055628Y0259169D01*
X0055485Y0259242D01*
X0055343Y0259318D01*
X0055204Y0259398D01*
X0055066Y0259481D01*
X0054931Y0259568D01*
X0054797Y0259658D01*
X0054666Y0259751D01*
X0054538Y0259847D01*
X0054412Y0259947D01*
X0054288Y0260050D01*
X0054167Y0260155D01*
X0054048Y0260264D01*
X0053932Y0260375D01*
X0053819Y0260490D01*
X0053709Y0260607D01*
X0053602Y0260727D01*
X0053498Y0260849D01*
X0053397Y0260974D01*
X0053299Y0261102D01*
X0053204Y0261232D01*
X0053112Y0261364D01*
X0053024Y0261498D01*
X0052939Y0261635D01*
X0052857Y0261773D01*
X0052779Y0261914D01*
X0052705Y0262056D01*
X0052634Y0262200D01*
X0052566Y0262346D01*
X0052503Y0262494D01*
X0052442Y0262643D01*
X0052386Y0262794D01*
X0052333Y0262946D01*
X0052284Y0263099D01*
X0052239Y0263253D01*
X0052198Y0263408D01*
X0052160Y0263565D01*
X0052127Y0263722D01*
X0052097Y0263880D01*
X0052071Y0264039D01*
X0052050Y0264198D01*
X0052032Y0264358D01*
X0052018Y0264518D01*
X0052008Y0264679D01*
X0052002Y0264839D01*
X0052000Y0265000D01*
X0052000Y0517000D02*
X0052002Y0517161D01*
X0052008Y0517321D01*
X0052018Y0517482D01*
X0052032Y0517642D01*
X0052050Y0517802D01*
X0052071Y0517961D01*
X0052097Y0518120D01*
X0052127Y0518278D01*
X0052160Y0518435D01*
X0052198Y0518592D01*
X0052239Y0518747D01*
X0052284Y0518901D01*
X0052333Y0519054D01*
X0052386Y0519206D01*
X0052442Y0519357D01*
X0052503Y0519506D01*
X0052566Y0519654D01*
X0052634Y0519800D01*
X0052705Y0519944D01*
X0052779Y0520086D01*
X0052857Y0520227D01*
X0052939Y0520365D01*
X0053024Y0520502D01*
X0053112Y0520636D01*
X0053204Y0520768D01*
X0053299Y0520898D01*
X0053397Y0521026D01*
X0053498Y0521151D01*
X0053602Y0521273D01*
X0053709Y0521393D01*
X0053819Y0521510D01*
X0053932Y0521625D01*
X0054048Y0521736D01*
X0054167Y0521845D01*
X0054288Y0521950D01*
X0054412Y0522053D01*
X0054538Y0522153D01*
X0054666Y0522249D01*
X0054797Y0522342D01*
X0054931Y0522432D01*
X0055066Y0522519D01*
X0055204Y0522602D01*
X0055343Y0522682D01*
X0055485Y0522758D01*
X0055628Y0522831D01*
X0055773Y0522900D01*
X0055920Y0522966D01*
X0056068Y0523028D01*
X0056218Y0523086D01*
X0056369Y0523141D01*
X0056522Y0523192D01*
X0056676Y0523239D01*
X0056831Y0523282D01*
X0056987Y0523321D01*
X0057143Y0523357D01*
X0057301Y0523388D01*
X0057459Y0523416D01*
X0057618Y0523440D01*
X0057778Y0523460D01*
X0057938Y0523476D01*
X0058098Y0523488D01*
X0058259Y0523496D01*
X0058420Y0523500D01*
X0058580Y0523500D01*
X0058741Y0523496D01*
X0058902Y0523488D01*
X0059062Y0523476D01*
X0059222Y0523460D01*
X0059382Y0523440D01*
X0059541Y0523416D01*
X0059699Y0523388D01*
X0059857Y0523357D01*
X0060013Y0523321D01*
X0060169Y0523282D01*
X0060324Y0523239D01*
X0060478Y0523192D01*
X0060631Y0523141D01*
X0060782Y0523086D01*
X0060932Y0523028D01*
X0061080Y0522966D01*
X0061227Y0522900D01*
X0061372Y0522831D01*
X0061515Y0522758D01*
X0061657Y0522682D01*
X0061796Y0522602D01*
X0061934Y0522519D01*
X0062069Y0522432D01*
X0062203Y0522342D01*
X0062334Y0522249D01*
X0062462Y0522153D01*
X0062588Y0522053D01*
X0062712Y0521950D01*
X0062833Y0521845D01*
X0062952Y0521736D01*
X0063068Y0521625D01*
X0063181Y0521510D01*
X0063291Y0521393D01*
X0063398Y0521273D01*
X0063502Y0521151D01*
X0063603Y0521026D01*
X0063701Y0520898D01*
X0063796Y0520768D01*
X0063888Y0520636D01*
X0063976Y0520502D01*
X0064061Y0520365D01*
X0064143Y0520227D01*
X0064221Y0520086D01*
X0064295Y0519944D01*
X0064366Y0519800D01*
X0064434Y0519654D01*
X0064497Y0519506D01*
X0064558Y0519357D01*
X0064614Y0519206D01*
X0064667Y0519054D01*
X0064716Y0518901D01*
X0064761Y0518747D01*
X0064802Y0518592D01*
X0064840Y0518435D01*
X0064873Y0518278D01*
X0064903Y0518120D01*
X0064929Y0517961D01*
X0064950Y0517802D01*
X0064968Y0517642D01*
X0064982Y0517482D01*
X0064992Y0517321D01*
X0064998Y0517161D01*
X0065000Y0517000D01*
X0064998Y0516839D01*
X0064992Y0516679D01*
X0064982Y0516518D01*
X0064968Y0516358D01*
X0064950Y0516198D01*
X0064929Y0516039D01*
X0064903Y0515880D01*
X0064873Y0515722D01*
X0064840Y0515565D01*
X0064802Y0515408D01*
X0064761Y0515253D01*
X0064716Y0515099D01*
X0064667Y0514946D01*
X0064614Y0514794D01*
X0064558Y0514643D01*
X0064497Y0514494D01*
X0064434Y0514346D01*
X0064366Y0514200D01*
X0064295Y0514056D01*
X0064221Y0513914D01*
X0064143Y0513773D01*
X0064061Y0513635D01*
X0063976Y0513498D01*
X0063888Y0513364D01*
X0063796Y0513232D01*
X0063701Y0513102D01*
X0063603Y0512974D01*
X0063502Y0512849D01*
X0063398Y0512727D01*
X0063291Y0512607D01*
X0063181Y0512490D01*
X0063068Y0512375D01*
X0062952Y0512264D01*
X0062833Y0512155D01*
X0062712Y0512050D01*
X0062588Y0511947D01*
X0062462Y0511847D01*
X0062334Y0511751D01*
X0062203Y0511658D01*
X0062069Y0511568D01*
X0061934Y0511481D01*
X0061796Y0511398D01*
X0061657Y0511318D01*
X0061515Y0511242D01*
X0061372Y0511169D01*
X0061227Y0511100D01*
X0061080Y0511034D01*
X0060932Y0510972D01*
X0060782Y0510914D01*
X0060631Y0510859D01*
X0060478Y0510808D01*
X0060324Y0510761D01*
X0060169Y0510718D01*
X0060013Y0510679D01*
X0059857Y0510643D01*
X0059699Y0510612D01*
X0059541Y0510584D01*
X0059382Y0510560D01*
X0059222Y0510540D01*
X0059062Y0510524D01*
X0058902Y0510512D01*
X0058741Y0510504D01*
X0058580Y0510500D01*
X0058420Y0510500D01*
X0058259Y0510504D01*
X0058098Y0510512D01*
X0057938Y0510524D01*
X0057778Y0510540D01*
X0057618Y0510560D01*
X0057459Y0510584D01*
X0057301Y0510612D01*
X0057143Y0510643D01*
X0056987Y0510679D01*
X0056831Y0510718D01*
X0056676Y0510761D01*
X0056522Y0510808D01*
X0056369Y0510859D01*
X0056218Y0510914D01*
X0056068Y0510972D01*
X0055920Y0511034D01*
X0055773Y0511100D01*
X0055628Y0511169D01*
X0055485Y0511242D01*
X0055343Y0511318D01*
X0055204Y0511398D01*
X0055066Y0511481D01*
X0054931Y0511568D01*
X0054797Y0511658D01*
X0054666Y0511751D01*
X0054538Y0511847D01*
X0054412Y0511947D01*
X0054288Y0512050D01*
X0054167Y0512155D01*
X0054048Y0512264D01*
X0053932Y0512375D01*
X0053819Y0512490D01*
X0053709Y0512607D01*
X0053602Y0512727D01*
X0053498Y0512849D01*
X0053397Y0512974D01*
X0053299Y0513102D01*
X0053204Y0513232D01*
X0053112Y0513364D01*
X0053024Y0513498D01*
X0052939Y0513635D01*
X0052857Y0513773D01*
X0052779Y0513914D01*
X0052705Y0514056D01*
X0052634Y0514200D01*
X0052566Y0514346D01*
X0052503Y0514494D01*
X0052442Y0514643D01*
X0052386Y0514794D01*
X0052333Y0514946D01*
X0052284Y0515099D01*
X0052239Y0515253D01*
X0052198Y0515408D01*
X0052160Y0515565D01*
X0052127Y0515722D01*
X0052097Y0515880D01*
X0052071Y0516039D01*
X0052050Y0516198D01*
X0052032Y0516358D01*
X0052018Y0516518D01*
X0052008Y0516679D01*
X0052002Y0516839D01*
X0052000Y0517000D01*
X0114000Y0517000D02*
X0114002Y0517161D01*
X0114008Y0517321D01*
X0114018Y0517482D01*
X0114032Y0517642D01*
X0114050Y0517802D01*
X0114071Y0517961D01*
X0114097Y0518120D01*
X0114127Y0518278D01*
X0114160Y0518435D01*
X0114198Y0518592D01*
X0114239Y0518747D01*
X0114284Y0518901D01*
X0114333Y0519054D01*
X0114386Y0519206D01*
X0114442Y0519357D01*
X0114503Y0519506D01*
X0114566Y0519654D01*
X0114634Y0519800D01*
X0114705Y0519944D01*
X0114779Y0520086D01*
X0114857Y0520227D01*
X0114939Y0520365D01*
X0115024Y0520502D01*
X0115112Y0520636D01*
X0115204Y0520768D01*
X0115299Y0520898D01*
X0115397Y0521026D01*
X0115498Y0521151D01*
X0115602Y0521273D01*
X0115709Y0521393D01*
X0115819Y0521510D01*
X0115932Y0521625D01*
X0116048Y0521736D01*
X0116167Y0521845D01*
X0116288Y0521950D01*
X0116412Y0522053D01*
X0116538Y0522153D01*
X0116666Y0522249D01*
X0116797Y0522342D01*
X0116931Y0522432D01*
X0117066Y0522519D01*
X0117204Y0522602D01*
X0117343Y0522682D01*
X0117485Y0522758D01*
X0117628Y0522831D01*
X0117773Y0522900D01*
X0117920Y0522966D01*
X0118068Y0523028D01*
X0118218Y0523086D01*
X0118369Y0523141D01*
X0118522Y0523192D01*
X0118676Y0523239D01*
X0118831Y0523282D01*
X0118987Y0523321D01*
X0119143Y0523357D01*
X0119301Y0523388D01*
X0119459Y0523416D01*
X0119618Y0523440D01*
X0119778Y0523460D01*
X0119938Y0523476D01*
X0120098Y0523488D01*
X0120259Y0523496D01*
X0120420Y0523500D01*
X0120580Y0523500D01*
X0120741Y0523496D01*
X0120902Y0523488D01*
X0121062Y0523476D01*
X0121222Y0523460D01*
X0121382Y0523440D01*
X0121541Y0523416D01*
X0121699Y0523388D01*
X0121857Y0523357D01*
X0122013Y0523321D01*
X0122169Y0523282D01*
X0122324Y0523239D01*
X0122478Y0523192D01*
X0122631Y0523141D01*
X0122782Y0523086D01*
X0122932Y0523028D01*
X0123080Y0522966D01*
X0123227Y0522900D01*
X0123372Y0522831D01*
X0123515Y0522758D01*
X0123657Y0522682D01*
X0123796Y0522602D01*
X0123934Y0522519D01*
X0124069Y0522432D01*
X0124203Y0522342D01*
X0124334Y0522249D01*
X0124462Y0522153D01*
X0124588Y0522053D01*
X0124712Y0521950D01*
X0124833Y0521845D01*
X0124952Y0521736D01*
X0125068Y0521625D01*
X0125181Y0521510D01*
X0125291Y0521393D01*
X0125398Y0521273D01*
X0125502Y0521151D01*
X0125603Y0521026D01*
X0125701Y0520898D01*
X0125796Y0520768D01*
X0125888Y0520636D01*
X0125976Y0520502D01*
X0126061Y0520365D01*
X0126143Y0520227D01*
X0126221Y0520086D01*
X0126295Y0519944D01*
X0126366Y0519800D01*
X0126434Y0519654D01*
X0126497Y0519506D01*
X0126558Y0519357D01*
X0126614Y0519206D01*
X0126667Y0519054D01*
X0126716Y0518901D01*
X0126761Y0518747D01*
X0126802Y0518592D01*
X0126840Y0518435D01*
X0126873Y0518278D01*
X0126903Y0518120D01*
X0126929Y0517961D01*
X0126950Y0517802D01*
X0126968Y0517642D01*
X0126982Y0517482D01*
X0126992Y0517321D01*
X0126998Y0517161D01*
X0127000Y0517000D01*
X0126998Y0516839D01*
X0126992Y0516679D01*
X0126982Y0516518D01*
X0126968Y0516358D01*
X0126950Y0516198D01*
X0126929Y0516039D01*
X0126903Y0515880D01*
X0126873Y0515722D01*
X0126840Y0515565D01*
X0126802Y0515408D01*
X0126761Y0515253D01*
X0126716Y0515099D01*
X0126667Y0514946D01*
X0126614Y0514794D01*
X0126558Y0514643D01*
X0126497Y0514494D01*
X0126434Y0514346D01*
X0126366Y0514200D01*
X0126295Y0514056D01*
X0126221Y0513914D01*
X0126143Y0513773D01*
X0126061Y0513635D01*
X0125976Y0513498D01*
X0125888Y0513364D01*
X0125796Y0513232D01*
X0125701Y0513102D01*
X0125603Y0512974D01*
X0125502Y0512849D01*
X0125398Y0512727D01*
X0125291Y0512607D01*
X0125181Y0512490D01*
X0125068Y0512375D01*
X0124952Y0512264D01*
X0124833Y0512155D01*
X0124712Y0512050D01*
X0124588Y0511947D01*
X0124462Y0511847D01*
X0124334Y0511751D01*
X0124203Y0511658D01*
X0124069Y0511568D01*
X0123934Y0511481D01*
X0123796Y0511398D01*
X0123657Y0511318D01*
X0123515Y0511242D01*
X0123372Y0511169D01*
X0123227Y0511100D01*
X0123080Y0511034D01*
X0122932Y0510972D01*
X0122782Y0510914D01*
X0122631Y0510859D01*
X0122478Y0510808D01*
X0122324Y0510761D01*
X0122169Y0510718D01*
X0122013Y0510679D01*
X0121857Y0510643D01*
X0121699Y0510612D01*
X0121541Y0510584D01*
X0121382Y0510560D01*
X0121222Y0510540D01*
X0121062Y0510524D01*
X0120902Y0510512D01*
X0120741Y0510504D01*
X0120580Y0510500D01*
X0120420Y0510500D01*
X0120259Y0510504D01*
X0120098Y0510512D01*
X0119938Y0510524D01*
X0119778Y0510540D01*
X0119618Y0510560D01*
X0119459Y0510584D01*
X0119301Y0510612D01*
X0119143Y0510643D01*
X0118987Y0510679D01*
X0118831Y0510718D01*
X0118676Y0510761D01*
X0118522Y0510808D01*
X0118369Y0510859D01*
X0118218Y0510914D01*
X0118068Y0510972D01*
X0117920Y0511034D01*
X0117773Y0511100D01*
X0117628Y0511169D01*
X0117485Y0511242D01*
X0117343Y0511318D01*
X0117204Y0511398D01*
X0117066Y0511481D01*
X0116931Y0511568D01*
X0116797Y0511658D01*
X0116666Y0511751D01*
X0116538Y0511847D01*
X0116412Y0511947D01*
X0116288Y0512050D01*
X0116167Y0512155D01*
X0116048Y0512264D01*
X0115932Y0512375D01*
X0115819Y0512490D01*
X0115709Y0512607D01*
X0115602Y0512727D01*
X0115498Y0512849D01*
X0115397Y0512974D01*
X0115299Y0513102D01*
X0115204Y0513232D01*
X0115112Y0513364D01*
X0115024Y0513498D01*
X0114939Y0513635D01*
X0114857Y0513773D01*
X0114779Y0513914D01*
X0114705Y0514056D01*
X0114634Y0514200D01*
X0114566Y0514346D01*
X0114503Y0514494D01*
X0114442Y0514643D01*
X0114386Y0514794D01*
X0114333Y0514946D01*
X0114284Y0515099D01*
X0114239Y0515253D01*
X0114198Y0515408D01*
X0114160Y0515565D01*
X0114127Y0515722D01*
X0114097Y0515880D01*
X0114071Y0516039D01*
X0114050Y0516198D01*
X0114032Y0516358D01*
X0114018Y0516518D01*
X0114008Y0516679D01*
X0114002Y0516839D01*
X0114000Y0517000D01*
X0176000Y0517000D02*
X0176002Y0517161D01*
X0176008Y0517321D01*
X0176018Y0517482D01*
X0176032Y0517642D01*
X0176050Y0517802D01*
X0176071Y0517961D01*
X0176097Y0518120D01*
X0176127Y0518278D01*
X0176160Y0518435D01*
X0176198Y0518592D01*
X0176239Y0518747D01*
X0176284Y0518901D01*
X0176333Y0519054D01*
X0176386Y0519206D01*
X0176442Y0519357D01*
X0176503Y0519506D01*
X0176566Y0519654D01*
X0176634Y0519800D01*
X0176705Y0519944D01*
X0176779Y0520086D01*
X0176857Y0520227D01*
X0176939Y0520365D01*
X0177024Y0520502D01*
X0177112Y0520636D01*
X0177204Y0520768D01*
X0177299Y0520898D01*
X0177397Y0521026D01*
X0177498Y0521151D01*
X0177602Y0521273D01*
X0177709Y0521393D01*
X0177819Y0521510D01*
X0177932Y0521625D01*
X0178048Y0521736D01*
X0178167Y0521845D01*
X0178288Y0521950D01*
X0178412Y0522053D01*
X0178538Y0522153D01*
X0178666Y0522249D01*
X0178797Y0522342D01*
X0178931Y0522432D01*
X0179066Y0522519D01*
X0179204Y0522602D01*
X0179343Y0522682D01*
X0179485Y0522758D01*
X0179628Y0522831D01*
X0179773Y0522900D01*
X0179920Y0522966D01*
X0180068Y0523028D01*
X0180218Y0523086D01*
X0180369Y0523141D01*
X0180522Y0523192D01*
X0180676Y0523239D01*
X0180831Y0523282D01*
X0180987Y0523321D01*
X0181143Y0523357D01*
X0181301Y0523388D01*
X0181459Y0523416D01*
X0181618Y0523440D01*
X0181778Y0523460D01*
X0181938Y0523476D01*
X0182098Y0523488D01*
X0182259Y0523496D01*
X0182420Y0523500D01*
X0182580Y0523500D01*
X0182741Y0523496D01*
X0182902Y0523488D01*
X0183062Y0523476D01*
X0183222Y0523460D01*
X0183382Y0523440D01*
X0183541Y0523416D01*
X0183699Y0523388D01*
X0183857Y0523357D01*
X0184013Y0523321D01*
X0184169Y0523282D01*
X0184324Y0523239D01*
X0184478Y0523192D01*
X0184631Y0523141D01*
X0184782Y0523086D01*
X0184932Y0523028D01*
X0185080Y0522966D01*
X0185227Y0522900D01*
X0185372Y0522831D01*
X0185515Y0522758D01*
X0185657Y0522682D01*
X0185796Y0522602D01*
X0185934Y0522519D01*
X0186069Y0522432D01*
X0186203Y0522342D01*
X0186334Y0522249D01*
X0186462Y0522153D01*
X0186588Y0522053D01*
X0186712Y0521950D01*
X0186833Y0521845D01*
X0186952Y0521736D01*
X0187068Y0521625D01*
X0187181Y0521510D01*
X0187291Y0521393D01*
X0187398Y0521273D01*
X0187502Y0521151D01*
X0187603Y0521026D01*
X0187701Y0520898D01*
X0187796Y0520768D01*
X0187888Y0520636D01*
X0187976Y0520502D01*
X0188061Y0520365D01*
X0188143Y0520227D01*
X0188221Y0520086D01*
X0188295Y0519944D01*
X0188366Y0519800D01*
X0188434Y0519654D01*
X0188497Y0519506D01*
X0188558Y0519357D01*
X0188614Y0519206D01*
X0188667Y0519054D01*
X0188716Y0518901D01*
X0188761Y0518747D01*
X0188802Y0518592D01*
X0188840Y0518435D01*
X0188873Y0518278D01*
X0188903Y0518120D01*
X0188929Y0517961D01*
X0188950Y0517802D01*
X0188968Y0517642D01*
X0188982Y0517482D01*
X0188992Y0517321D01*
X0188998Y0517161D01*
X0189000Y0517000D01*
X0188998Y0516839D01*
X0188992Y0516679D01*
X0188982Y0516518D01*
X0188968Y0516358D01*
X0188950Y0516198D01*
X0188929Y0516039D01*
X0188903Y0515880D01*
X0188873Y0515722D01*
X0188840Y0515565D01*
X0188802Y0515408D01*
X0188761Y0515253D01*
X0188716Y0515099D01*
X0188667Y0514946D01*
X0188614Y0514794D01*
X0188558Y0514643D01*
X0188497Y0514494D01*
X0188434Y0514346D01*
X0188366Y0514200D01*
X0188295Y0514056D01*
X0188221Y0513914D01*
X0188143Y0513773D01*
X0188061Y0513635D01*
X0187976Y0513498D01*
X0187888Y0513364D01*
X0187796Y0513232D01*
X0187701Y0513102D01*
X0187603Y0512974D01*
X0187502Y0512849D01*
X0187398Y0512727D01*
X0187291Y0512607D01*
X0187181Y0512490D01*
X0187068Y0512375D01*
X0186952Y0512264D01*
X0186833Y0512155D01*
X0186712Y0512050D01*
X0186588Y0511947D01*
X0186462Y0511847D01*
X0186334Y0511751D01*
X0186203Y0511658D01*
X0186069Y0511568D01*
X0185934Y0511481D01*
X0185796Y0511398D01*
X0185657Y0511318D01*
X0185515Y0511242D01*
X0185372Y0511169D01*
X0185227Y0511100D01*
X0185080Y0511034D01*
X0184932Y0510972D01*
X0184782Y0510914D01*
X0184631Y0510859D01*
X0184478Y0510808D01*
X0184324Y0510761D01*
X0184169Y0510718D01*
X0184013Y0510679D01*
X0183857Y0510643D01*
X0183699Y0510612D01*
X0183541Y0510584D01*
X0183382Y0510560D01*
X0183222Y0510540D01*
X0183062Y0510524D01*
X0182902Y0510512D01*
X0182741Y0510504D01*
X0182580Y0510500D01*
X0182420Y0510500D01*
X0182259Y0510504D01*
X0182098Y0510512D01*
X0181938Y0510524D01*
X0181778Y0510540D01*
X0181618Y0510560D01*
X0181459Y0510584D01*
X0181301Y0510612D01*
X0181143Y0510643D01*
X0180987Y0510679D01*
X0180831Y0510718D01*
X0180676Y0510761D01*
X0180522Y0510808D01*
X0180369Y0510859D01*
X0180218Y0510914D01*
X0180068Y0510972D01*
X0179920Y0511034D01*
X0179773Y0511100D01*
X0179628Y0511169D01*
X0179485Y0511242D01*
X0179343Y0511318D01*
X0179204Y0511398D01*
X0179066Y0511481D01*
X0178931Y0511568D01*
X0178797Y0511658D01*
X0178666Y0511751D01*
X0178538Y0511847D01*
X0178412Y0511947D01*
X0178288Y0512050D01*
X0178167Y0512155D01*
X0178048Y0512264D01*
X0177932Y0512375D01*
X0177819Y0512490D01*
X0177709Y0512607D01*
X0177602Y0512727D01*
X0177498Y0512849D01*
X0177397Y0512974D01*
X0177299Y0513102D01*
X0177204Y0513232D01*
X0177112Y0513364D01*
X0177024Y0513498D01*
X0176939Y0513635D01*
X0176857Y0513773D01*
X0176779Y0513914D01*
X0176705Y0514056D01*
X0176634Y0514200D01*
X0176566Y0514346D01*
X0176503Y0514494D01*
X0176442Y0514643D01*
X0176386Y0514794D01*
X0176333Y0514946D01*
X0176284Y0515099D01*
X0176239Y0515253D01*
X0176198Y0515408D01*
X0176160Y0515565D01*
X0176127Y0515722D01*
X0176097Y0515880D01*
X0176071Y0516039D01*
X0176050Y0516198D01*
X0176032Y0516358D01*
X0176018Y0516518D01*
X0176008Y0516679D01*
X0176002Y0516839D01*
X0176000Y0517000D01*
X0238000Y0517000D02*
X0238002Y0517161D01*
X0238008Y0517321D01*
X0238018Y0517482D01*
X0238032Y0517642D01*
X0238050Y0517802D01*
X0238071Y0517961D01*
X0238097Y0518120D01*
X0238127Y0518278D01*
X0238160Y0518435D01*
X0238198Y0518592D01*
X0238239Y0518747D01*
X0238284Y0518901D01*
X0238333Y0519054D01*
X0238386Y0519206D01*
X0238442Y0519357D01*
X0238503Y0519506D01*
X0238566Y0519654D01*
X0238634Y0519800D01*
X0238705Y0519944D01*
X0238779Y0520086D01*
X0238857Y0520227D01*
X0238939Y0520365D01*
X0239024Y0520502D01*
X0239112Y0520636D01*
X0239204Y0520768D01*
X0239299Y0520898D01*
X0239397Y0521026D01*
X0239498Y0521151D01*
X0239602Y0521273D01*
X0239709Y0521393D01*
X0239819Y0521510D01*
X0239932Y0521625D01*
X0240048Y0521736D01*
X0240167Y0521845D01*
X0240288Y0521950D01*
X0240412Y0522053D01*
X0240538Y0522153D01*
X0240666Y0522249D01*
X0240797Y0522342D01*
X0240931Y0522432D01*
X0241066Y0522519D01*
X0241204Y0522602D01*
X0241343Y0522682D01*
X0241485Y0522758D01*
X0241628Y0522831D01*
X0241773Y0522900D01*
X0241920Y0522966D01*
X0242068Y0523028D01*
X0242218Y0523086D01*
X0242369Y0523141D01*
X0242522Y0523192D01*
X0242676Y0523239D01*
X0242831Y0523282D01*
X0242987Y0523321D01*
X0243143Y0523357D01*
X0243301Y0523388D01*
X0243459Y0523416D01*
X0243618Y0523440D01*
X0243778Y0523460D01*
X0243938Y0523476D01*
X0244098Y0523488D01*
X0244259Y0523496D01*
X0244420Y0523500D01*
X0244580Y0523500D01*
X0244741Y0523496D01*
X0244902Y0523488D01*
X0245062Y0523476D01*
X0245222Y0523460D01*
X0245382Y0523440D01*
X0245541Y0523416D01*
X0245699Y0523388D01*
X0245857Y0523357D01*
X0246013Y0523321D01*
X0246169Y0523282D01*
X0246324Y0523239D01*
X0246478Y0523192D01*
X0246631Y0523141D01*
X0246782Y0523086D01*
X0246932Y0523028D01*
X0247080Y0522966D01*
X0247227Y0522900D01*
X0247372Y0522831D01*
X0247515Y0522758D01*
X0247657Y0522682D01*
X0247796Y0522602D01*
X0247934Y0522519D01*
X0248069Y0522432D01*
X0248203Y0522342D01*
X0248334Y0522249D01*
X0248462Y0522153D01*
X0248588Y0522053D01*
X0248712Y0521950D01*
X0248833Y0521845D01*
X0248952Y0521736D01*
X0249068Y0521625D01*
X0249181Y0521510D01*
X0249291Y0521393D01*
X0249398Y0521273D01*
X0249502Y0521151D01*
X0249603Y0521026D01*
X0249701Y0520898D01*
X0249796Y0520768D01*
X0249888Y0520636D01*
X0249976Y0520502D01*
X0250061Y0520365D01*
X0250143Y0520227D01*
X0250221Y0520086D01*
X0250295Y0519944D01*
X0250366Y0519800D01*
X0250434Y0519654D01*
X0250497Y0519506D01*
X0250558Y0519357D01*
X0250614Y0519206D01*
X0250667Y0519054D01*
X0250716Y0518901D01*
X0250761Y0518747D01*
X0250802Y0518592D01*
X0250840Y0518435D01*
X0250873Y0518278D01*
X0250903Y0518120D01*
X0250929Y0517961D01*
X0250950Y0517802D01*
X0250968Y0517642D01*
X0250982Y0517482D01*
X0250992Y0517321D01*
X0250998Y0517161D01*
X0251000Y0517000D01*
X0250998Y0516839D01*
X0250992Y0516679D01*
X0250982Y0516518D01*
X0250968Y0516358D01*
X0250950Y0516198D01*
X0250929Y0516039D01*
X0250903Y0515880D01*
X0250873Y0515722D01*
X0250840Y0515565D01*
X0250802Y0515408D01*
X0250761Y0515253D01*
X0250716Y0515099D01*
X0250667Y0514946D01*
X0250614Y0514794D01*
X0250558Y0514643D01*
X0250497Y0514494D01*
X0250434Y0514346D01*
X0250366Y0514200D01*
X0250295Y0514056D01*
X0250221Y0513914D01*
X0250143Y0513773D01*
X0250061Y0513635D01*
X0249976Y0513498D01*
X0249888Y0513364D01*
X0249796Y0513232D01*
X0249701Y0513102D01*
X0249603Y0512974D01*
X0249502Y0512849D01*
X0249398Y0512727D01*
X0249291Y0512607D01*
X0249181Y0512490D01*
X0249068Y0512375D01*
X0248952Y0512264D01*
X0248833Y0512155D01*
X0248712Y0512050D01*
X0248588Y0511947D01*
X0248462Y0511847D01*
X0248334Y0511751D01*
X0248203Y0511658D01*
X0248069Y0511568D01*
X0247934Y0511481D01*
X0247796Y0511398D01*
X0247657Y0511318D01*
X0247515Y0511242D01*
X0247372Y0511169D01*
X0247227Y0511100D01*
X0247080Y0511034D01*
X0246932Y0510972D01*
X0246782Y0510914D01*
X0246631Y0510859D01*
X0246478Y0510808D01*
X0246324Y0510761D01*
X0246169Y0510718D01*
X0246013Y0510679D01*
X0245857Y0510643D01*
X0245699Y0510612D01*
X0245541Y0510584D01*
X0245382Y0510560D01*
X0245222Y0510540D01*
X0245062Y0510524D01*
X0244902Y0510512D01*
X0244741Y0510504D01*
X0244580Y0510500D01*
X0244420Y0510500D01*
X0244259Y0510504D01*
X0244098Y0510512D01*
X0243938Y0510524D01*
X0243778Y0510540D01*
X0243618Y0510560D01*
X0243459Y0510584D01*
X0243301Y0510612D01*
X0243143Y0510643D01*
X0242987Y0510679D01*
X0242831Y0510718D01*
X0242676Y0510761D01*
X0242522Y0510808D01*
X0242369Y0510859D01*
X0242218Y0510914D01*
X0242068Y0510972D01*
X0241920Y0511034D01*
X0241773Y0511100D01*
X0241628Y0511169D01*
X0241485Y0511242D01*
X0241343Y0511318D01*
X0241204Y0511398D01*
X0241066Y0511481D01*
X0240931Y0511568D01*
X0240797Y0511658D01*
X0240666Y0511751D01*
X0240538Y0511847D01*
X0240412Y0511947D01*
X0240288Y0512050D01*
X0240167Y0512155D01*
X0240048Y0512264D01*
X0239932Y0512375D01*
X0239819Y0512490D01*
X0239709Y0512607D01*
X0239602Y0512727D01*
X0239498Y0512849D01*
X0239397Y0512974D01*
X0239299Y0513102D01*
X0239204Y0513232D01*
X0239112Y0513364D01*
X0239024Y0513498D01*
X0238939Y0513635D01*
X0238857Y0513773D01*
X0238779Y0513914D01*
X0238705Y0514056D01*
X0238634Y0514200D01*
X0238566Y0514346D01*
X0238503Y0514494D01*
X0238442Y0514643D01*
X0238386Y0514794D01*
X0238333Y0514946D01*
X0238284Y0515099D01*
X0238239Y0515253D01*
X0238198Y0515408D01*
X0238160Y0515565D01*
X0238127Y0515722D01*
X0238097Y0515880D01*
X0238071Y0516039D01*
X0238050Y0516198D01*
X0238032Y0516358D01*
X0238018Y0516518D01*
X0238008Y0516679D01*
X0238002Y0516839D01*
X0238000Y0517000D01*
X0300000Y0517000D02*
X0300002Y0517161D01*
X0300008Y0517321D01*
X0300018Y0517482D01*
X0300032Y0517642D01*
X0300050Y0517802D01*
X0300071Y0517961D01*
X0300097Y0518120D01*
X0300127Y0518278D01*
X0300160Y0518435D01*
X0300198Y0518592D01*
X0300239Y0518747D01*
X0300284Y0518901D01*
X0300333Y0519054D01*
X0300386Y0519206D01*
X0300442Y0519357D01*
X0300503Y0519506D01*
X0300566Y0519654D01*
X0300634Y0519800D01*
X0300705Y0519944D01*
X0300779Y0520086D01*
X0300857Y0520227D01*
X0300939Y0520365D01*
X0301024Y0520502D01*
X0301112Y0520636D01*
X0301204Y0520768D01*
X0301299Y0520898D01*
X0301397Y0521026D01*
X0301498Y0521151D01*
X0301602Y0521273D01*
X0301709Y0521393D01*
X0301819Y0521510D01*
X0301932Y0521625D01*
X0302048Y0521736D01*
X0302167Y0521845D01*
X0302288Y0521950D01*
X0302412Y0522053D01*
X0302538Y0522153D01*
X0302666Y0522249D01*
X0302797Y0522342D01*
X0302931Y0522432D01*
X0303066Y0522519D01*
X0303204Y0522602D01*
X0303343Y0522682D01*
X0303485Y0522758D01*
X0303628Y0522831D01*
X0303773Y0522900D01*
X0303920Y0522966D01*
X0304068Y0523028D01*
X0304218Y0523086D01*
X0304369Y0523141D01*
X0304522Y0523192D01*
X0304676Y0523239D01*
X0304831Y0523282D01*
X0304987Y0523321D01*
X0305143Y0523357D01*
X0305301Y0523388D01*
X0305459Y0523416D01*
X0305618Y0523440D01*
X0305778Y0523460D01*
X0305938Y0523476D01*
X0306098Y0523488D01*
X0306259Y0523496D01*
X0306420Y0523500D01*
X0306580Y0523500D01*
X0306741Y0523496D01*
X0306902Y0523488D01*
X0307062Y0523476D01*
X0307222Y0523460D01*
X0307382Y0523440D01*
X0307541Y0523416D01*
X0307699Y0523388D01*
X0307857Y0523357D01*
X0308013Y0523321D01*
X0308169Y0523282D01*
X0308324Y0523239D01*
X0308478Y0523192D01*
X0308631Y0523141D01*
X0308782Y0523086D01*
X0308932Y0523028D01*
X0309080Y0522966D01*
X0309227Y0522900D01*
X0309372Y0522831D01*
X0309515Y0522758D01*
X0309657Y0522682D01*
X0309796Y0522602D01*
X0309934Y0522519D01*
X0310069Y0522432D01*
X0310203Y0522342D01*
X0310334Y0522249D01*
X0310462Y0522153D01*
X0310588Y0522053D01*
X0310712Y0521950D01*
X0310833Y0521845D01*
X0310952Y0521736D01*
X0311068Y0521625D01*
X0311181Y0521510D01*
X0311291Y0521393D01*
X0311398Y0521273D01*
X0311502Y0521151D01*
X0311603Y0521026D01*
X0311701Y0520898D01*
X0311796Y0520768D01*
X0311888Y0520636D01*
X0311976Y0520502D01*
X0312061Y0520365D01*
X0312143Y0520227D01*
X0312221Y0520086D01*
X0312295Y0519944D01*
X0312366Y0519800D01*
X0312434Y0519654D01*
X0312497Y0519506D01*
X0312558Y0519357D01*
X0312614Y0519206D01*
X0312667Y0519054D01*
X0312716Y0518901D01*
X0312761Y0518747D01*
X0312802Y0518592D01*
X0312840Y0518435D01*
X0312873Y0518278D01*
X0312903Y0518120D01*
X0312929Y0517961D01*
X0312950Y0517802D01*
X0312968Y0517642D01*
X0312982Y0517482D01*
X0312992Y0517321D01*
X0312998Y0517161D01*
X0313000Y0517000D01*
X0312998Y0516839D01*
X0312992Y0516679D01*
X0312982Y0516518D01*
X0312968Y0516358D01*
X0312950Y0516198D01*
X0312929Y0516039D01*
X0312903Y0515880D01*
X0312873Y0515722D01*
X0312840Y0515565D01*
X0312802Y0515408D01*
X0312761Y0515253D01*
X0312716Y0515099D01*
X0312667Y0514946D01*
X0312614Y0514794D01*
X0312558Y0514643D01*
X0312497Y0514494D01*
X0312434Y0514346D01*
X0312366Y0514200D01*
X0312295Y0514056D01*
X0312221Y0513914D01*
X0312143Y0513773D01*
X0312061Y0513635D01*
X0311976Y0513498D01*
X0311888Y0513364D01*
X0311796Y0513232D01*
X0311701Y0513102D01*
X0311603Y0512974D01*
X0311502Y0512849D01*
X0311398Y0512727D01*
X0311291Y0512607D01*
X0311181Y0512490D01*
X0311068Y0512375D01*
X0310952Y0512264D01*
X0310833Y0512155D01*
X0310712Y0512050D01*
X0310588Y0511947D01*
X0310462Y0511847D01*
X0310334Y0511751D01*
X0310203Y0511658D01*
X0310069Y0511568D01*
X0309934Y0511481D01*
X0309796Y0511398D01*
X0309657Y0511318D01*
X0309515Y0511242D01*
X0309372Y0511169D01*
X0309227Y0511100D01*
X0309080Y0511034D01*
X0308932Y0510972D01*
X0308782Y0510914D01*
X0308631Y0510859D01*
X0308478Y0510808D01*
X0308324Y0510761D01*
X0308169Y0510718D01*
X0308013Y0510679D01*
X0307857Y0510643D01*
X0307699Y0510612D01*
X0307541Y0510584D01*
X0307382Y0510560D01*
X0307222Y0510540D01*
X0307062Y0510524D01*
X0306902Y0510512D01*
X0306741Y0510504D01*
X0306580Y0510500D01*
X0306420Y0510500D01*
X0306259Y0510504D01*
X0306098Y0510512D01*
X0305938Y0510524D01*
X0305778Y0510540D01*
X0305618Y0510560D01*
X0305459Y0510584D01*
X0305301Y0510612D01*
X0305143Y0510643D01*
X0304987Y0510679D01*
X0304831Y0510718D01*
X0304676Y0510761D01*
X0304522Y0510808D01*
X0304369Y0510859D01*
X0304218Y0510914D01*
X0304068Y0510972D01*
X0303920Y0511034D01*
X0303773Y0511100D01*
X0303628Y0511169D01*
X0303485Y0511242D01*
X0303343Y0511318D01*
X0303204Y0511398D01*
X0303066Y0511481D01*
X0302931Y0511568D01*
X0302797Y0511658D01*
X0302666Y0511751D01*
X0302538Y0511847D01*
X0302412Y0511947D01*
X0302288Y0512050D01*
X0302167Y0512155D01*
X0302048Y0512264D01*
X0301932Y0512375D01*
X0301819Y0512490D01*
X0301709Y0512607D01*
X0301602Y0512727D01*
X0301498Y0512849D01*
X0301397Y0512974D01*
X0301299Y0513102D01*
X0301204Y0513232D01*
X0301112Y0513364D01*
X0301024Y0513498D01*
X0300939Y0513635D01*
X0300857Y0513773D01*
X0300779Y0513914D01*
X0300705Y0514056D01*
X0300634Y0514200D01*
X0300566Y0514346D01*
X0300503Y0514494D01*
X0300442Y0514643D01*
X0300386Y0514794D01*
X0300333Y0514946D01*
X0300284Y0515099D01*
X0300239Y0515253D01*
X0300198Y0515408D01*
X0300160Y0515565D01*
X0300127Y0515722D01*
X0300097Y0515880D01*
X0300071Y0516039D01*
X0300050Y0516198D01*
X0300032Y0516358D01*
X0300018Y0516518D01*
X0300008Y0516679D01*
X0300002Y0516839D01*
X0300000Y0517000D01*
M02*
