G75*
%MOIN*%
%OFA0B0*%
%FSLAX25Y25*%
%IPPOS*%
%LPD*%
%AMOC8*
5,1,8,0,0,1.08239X$1,22.5*
%
%ADD10R,0.02965X0.05524*%
%ADD11R,0.05131X0.04737*%
%ADD12R,0.05524X0.03950*%
%ADD13R,0.04737X0.05131*%
%ADD14R,0.03280X0.04068*%
%ADD15R,0.11430X0.03950*%
%ADD16R,0.05524X0.02965*%
%ADD17R,0.03162X0.05524*%
%ADD18C,0.08200*%
%ADD19C,0.13800*%
%ADD20C,0.04737*%
%ADD21R,0.01706X0.02532*%
%ADD22R,0.01706X0.02139*%
D10*
X0069760Y0149881D03*
X0073500Y0149881D03*
X0077240Y0149881D03*
X0077240Y0160119D03*
X0069760Y0160119D03*
X0131760Y0160119D03*
X0131760Y0149881D03*
X0135500Y0149881D03*
X0139240Y0149881D03*
X0139240Y0160119D03*
X0193760Y0160119D03*
X0193760Y0149881D03*
X0197500Y0149881D03*
X0201240Y0149881D03*
X0201240Y0160119D03*
X0255760Y0160119D03*
X0263240Y0160119D03*
X0263240Y0149881D03*
X0259500Y0149881D03*
X0255760Y0149881D03*
X0317760Y0149881D03*
X0321500Y0149881D03*
X0325240Y0149881D03*
X0325240Y0160119D03*
X0317760Y0160119D03*
X0317760Y0401881D03*
X0321500Y0401881D03*
X0325240Y0401881D03*
X0325240Y0412119D03*
X0317760Y0412119D03*
X0263240Y0412119D03*
X0255760Y0412119D03*
X0255760Y0401881D03*
X0259500Y0401881D03*
X0263240Y0401881D03*
X0201240Y0401881D03*
X0197500Y0401881D03*
X0193760Y0401881D03*
X0193760Y0412119D03*
X0201240Y0412119D03*
X0139240Y0412119D03*
X0139240Y0401881D03*
X0135500Y0401881D03*
X0131760Y0401881D03*
X0131760Y0412119D03*
X0077240Y0412119D03*
X0077240Y0401881D03*
X0073500Y0401881D03*
X0069760Y0401881D03*
X0069760Y0412119D03*
D11*
X0070154Y0420500D03*
X0076846Y0420500D03*
X0075154Y0347000D03*
X0081846Y0347000D03*
X0081846Y0327000D03*
X0075154Y0327000D03*
X0066846Y0319500D03*
X0060154Y0319500D03*
X0041846Y0319500D03*
X0035154Y0319500D03*
X0097154Y0319500D03*
X0103846Y0319500D03*
X0122154Y0319500D03*
X0128846Y0319500D03*
X0137154Y0327000D03*
X0143846Y0327000D03*
X0143846Y0347000D03*
X0137154Y0347000D03*
X0159154Y0319500D03*
X0165846Y0319500D03*
X0184154Y0319500D03*
X0190846Y0319500D03*
X0199154Y0327000D03*
X0205846Y0327000D03*
X0205846Y0347000D03*
X0199154Y0347000D03*
X0221154Y0319500D03*
X0227846Y0319500D03*
X0246154Y0319500D03*
X0252846Y0319500D03*
X0261154Y0327000D03*
X0267846Y0327000D03*
X0283154Y0319500D03*
X0289846Y0319500D03*
X0308154Y0319500D03*
X0314846Y0319500D03*
X0323154Y0327000D03*
X0329846Y0327000D03*
X0329846Y0347000D03*
X0323154Y0347000D03*
X0324846Y0420500D03*
X0318154Y0420500D03*
X0267846Y0347000D03*
X0261154Y0347000D03*
X0262846Y0420500D03*
X0256154Y0420500D03*
X0200846Y0420500D03*
X0194154Y0420500D03*
X0138846Y0420500D03*
X0132154Y0420500D03*
X0132154Y0168500D03*
X0138846Y0168500D03*
X0137154Y0095000D03*
X0143846Y0095000D03*
X0143846Y0075000D03*
X0137154Y0075000D03*
X0128846Y0067500D03*
X0122154Y0067500D03*
X0103846Y0067500D03*
X0097154Y0067500D03*
X0081846Y0075000D03*
X0075154Y0075000D03*
X0066846Y0067500D03*
X0060154Y0067500D03*
X0041846Y0067500D03*
X0035154Y0067500D03*
X0075154Y0095000D03*
X0081846Y0095000D03*
X0076846Y0168500D03*
X0070154Y0168500D03*
X0159154Y0067500D03*
X0165846Y0067500D03*
X0184154Y0067500D03*
X0190846Y0067500D03*
X0199154Y0075000D03*
X0205846Y0075000D03*
X0205846Y0095000D03*
X0199154Y0095000D03*
X0221154Y0067500D03*
X0227846Y0067500D03*
X0246154Y0067500D03*
X0252846Y0067500D03*
X0261154Y0075000D03*
X0267846Y0075000D03*
X0283154Y0067500D03*
X0289846Y0067500D03*
X0308154Y0067500D03*
X0314846Y0067500D03*
X0323154Y0075000D03*
X0329846Y0075000D03*
X0329846Y0095000D03*
X0323154Y0095000D03*
X0324846Y0168500D03*
X0318154Y0168500D03*
X0267846Y0095000D03*
X0261154Y0095000D03*
X0262846Y0168500D03*
X0256154Y0168500D03*
X0200846Y0168500D03*
X0194154Y0168500D03*
D12*
X0197500Y0133543D03*
X0190500Y0133543D03*
X0190500Y0126457D03*
X0197500Y0126457D03*
X0183500Y0118543D03*
X0183500Y0111457D03*
X0135500Y0126457D03*
X0135500Y0133543D03*
X0128500Y0133543D03*
X0128500Y0126457D03*
X0121500Y0118543D03*
X0121500Y0111457D03*
X0073500Y0126457D03*
X0073500Y0133543D03*
X0066500Y0133543D03*
X0066500Y0126457D03*
X0059500Y0118543D03*
X0059500Y0111457D03*
X0059500Y0363457D03*
X0059500Y0370543D03*
X0066500Y0378457D03*
X0066500Y0385543D03*
X0073500Y0385543D03*
X0073500Y0378457D03*
X0121500Y0370543D03*
X0121500Y0363457D03*
X0128500Y0378457D03*
X0128500Y0385543D03*
X0135500Y0385543D03*
X0135500Y0378457D03*
X0183500Y0370543D03*
X0183500Y0363457D03*
X0190500Y0378457D03*
X0197500Y0378457D03*
X0197500Y0385543D03*
X0190500Y0385543D03*
X0245500Y0370543D03*
X0245500Y0363457D03*
X0252500Y0378457D03*
X0252500Y0385543D03*
X0259500Y0385543D03*
X0259500Y0378457D03*
X0307500Y0370543D03*
X0307500Y0363457D03*
X0314500Y0378457D03*
X0314500Y0385543D03*
X0321500Y0385543D03*
X0321500Y0378457D03*
X0321500Y0133543D03*
X0321500Y0126457D03*
X0314500Y0126457D03*
X0314500Y0133543D03*
X0307500Y0118543D03*
X0307500Y0111457D03*
X0259500Y0126457D03*
X0259500Y0133543D03*
X0252500Y0133543D03*
X0252500Y0126457D03*
X0245500Y0118543D03*
X0245500Y0111457D03*
D13*
X0252000Y0111654D03*
X0258000Y0111654D03*
X0258000Y0118346D03*
X0252000Y0118346D03*
X0246000Y0126654D03*
X0246000Y0133346D03*
X0269500Y0141654D03*
X0269500Y0148346D03*
X0269500Y0156654D03*
X0269500Y0163346D03*
X0308000Y0133346D03*
X0308000Y0126654D03*
X0314000Y0118346D03*
X0314000Y0111654D03*
X0320000Y0111654D03*
X0320000Y0118346D03*
X0331500Y0141654D03*
X0331500Y0148346D03*
X0331500Y0156654D03*
X0331500Y0163346D03*
X0320000Y0363654D03*
X0320000Y0370346D03*
X0314000Y0370346D03*
X0314000Y0363654D03*
X0308000Y0378654D03*
X0308000Y0385346D03*
X0331500Y0393654D03*
X0331500Y0400346D03*
X0331500Y0408654D03*
X0331500Y0415346D03*
X0269500Y0415346D03*
X0269500Y0408654D03*
X0269500Y0400346D03*
X0269500Y0393654D03*
X0258000Y0370346D03*
X0252000Y0370346D03*
X0252000Y0363654D03*
X0258000Y0363654D03*
X0246000Y0378654D03*
X0246000Y0385346D03*
X0207500Y0393654D03*
X0207500Y0400346D03*
X0207500Y0408654D03*
X0207500Y0415346D03*
X0196000Y0370346D03*
X0196000Y0363654D03*
X0190000Y0363654D03*
X0190000Y0370346D03*
X0184000Y0378654D03*
X0184000Y0385346D03*
X0145500Y0393654D03*
X0145500Y0400346D03*
X0145500Y0408654D03*
X0145500Y0415346D03*
X0122000Y0385346D03*
X0122000Y0378654D03*
X0128000Y0370346D03*
X0128000Y0363654D03*
X0134000Y0363654D03*
X0134000Y0370346D03*
X0083500Y0393654D03*
X0083500Y0400346D03*
X0083500Y0408654D03*
X0083500Y0415346D03*
X0072000Y0370346D03*
X0066000Y0370346D03*
X0066000Y0363654D03*
X0072000Y0363654D03*
X0060000Y0378654D03*
X0060000Y0385346D03*
X0083500Y0163346D03*
X0083500Y0156654D03*
X0083500Y0148346D03*
X0083500Y0141654D03*
X0072000Y0118346D03*
X0066000Y0118346D03*
X0066000Y0111654D03*
X0072000Y0111654D03*
X0060000Y0126654D03*
X0060000Y0133346D03*
X0122000Y0133346D03*
X0122000Y0126654D03*
X0128000Y0118346D03*
X0128000Y0111654D03*
X0134000Y0111654D03*
X0134000Y0118346D03*
X0145500Y0141654D03*
X0145500Y0148346D03*
X0145500Y0156654D03*
X0145500Y0163346D03*
X0184000Y0133346D03*
X0184000Y0126654D03*
X0190000Y0118346D03*
X0190000Y0111654D03*
X0196000Y0111654D03*
X0196000Y0118346D03*
X0207500Y0141654D03*
X0207500Y0148346D03*
X0207500Y0156654D03*
X0207500Y0163346D03*
D14*
X0197028Y0140000D03*
X0187972Y0140000D03*
X0135028Y0140000D03*
X0125972Y0140000D03*
X0073028Y0140000D03*
X0063972Y0140000D03*
X0063972Y0392000D03*
X0073028Y0392000D03*
X0125972Y0392000D03*
X0135028Y0392000D03*
X0187972Y0392000D03*
X0197028Y0392000D03*
X0249972Y0392000D03*
X0259028Y0392000D03*
X0311972Y0392000D03*
X0321028Y0392000D03*
X0321028Y0140000D03*
X0311972Y0140000D03*
X0259028Y0140000D03*
X0249972Y0140000D03*
D15*
X0244500Y0150669D03*
X0244500Y0159331D03*
X0182500Y0159331D03*
X0182500Y0150669D03*
X0120500Y0150669D03*
X0120500Y0159331D03*
X0058500Y0159331D03*
X0058500Y0150669D03*
X0058500Y0402669D03*
X0058500Y0411331D03*
X0120500Y0411331D03*
X0120500Y0402669D03*
X0182500Y0402669D03*
X0182500Y0411331D03*
X0244500Y0411331D03*
X0244500Y0402669D03*
X0306500Y0402669D03*
X0306500Y0411331D03*
X0306500Y0159331D03*
X0306500Y0150669D03*
D16*
X0321381Y0088740D03*
X0321381Y0085000D03*
X0321381Y0081260D03*
X0331619Y0081260D03*
X0331619Y0088740D03*
X0269619Y0088740D03*
X0269619Y0081260D03*
X0259381Y0081260D03*
X0259381Y0085000D03*
X0259381Y0088740D03*
X0207619Y0088740D03*
X0207619Y0081260D03*
X0197381Y0081260D03*
X0197381Y0085000D03*
X0197381Y0088740D03*
X0145619Y0088740D03*
X0145619Y0081260D03*
X0135381Y0081260D03*
X0135381Y0085000D03*
X0135381Y0088740D03*
X0083619Y0088740D03*
X0083619Y0081260D03*
X0073381Y0081260D03*
X0073381Y0085000D03*
X0073381Y0088740D03*
X0073381Y0333260D03*
X0073381Y0337000D03*
X0073381Y0340740D03*
X0083619Y0340740D03*
X0083619Y0333260D03*
X0135381Y0333260D03*
X0135381Y0337000D03*
X0135381Y0340740D03*
X0145619Y0340740D03*
X0145619Y0333260D03*
X0197381Y0333260D03*
X0197381Y0337000D03*
X0197381Y0340740D03*
X0207619Y0340740D03*
X0207619Y0333260D03*
X0259381Y0333260D03*
X0259381Y0337000D03*
X0259381Y0340740D03*
X0269619Y0340740D03*
X0269619Y0333260D03*
X0321381Y0333260D03*
X0321381Y0337000D03*
X0321381Y0340740D03*
X0331619Y0340740D03*
X0331619Y0333260D03*
D17*
X0311500Y0328476D03*
X0306500Y0328476D03*
X0301500Y0328476D03*
X0296500Y0328476D03*
X0291500Y0328476D03*
X0286500Y0328476D03*
X0281500Y0328476D03*
X0281500Y0350524D03*
X0286500Y0350524D03*
X0291500Y0350524D03*
X0296500Y0350524D03*
X0301500Y0350524D03*
X0306500Y0350524D03*
X0311500Y0350524D03*
X0249500Y0350524D03*
X0244500Y0350524D03*
X0239500Y0350524D03*
X0234500Y0350524D03*
X0229500Y0350524D03*
X0224500Y0350524D03*
X0219500Y0350524D03*
X0219500Y0328476D03*
X0224500Y0328476D03*
X0229500Y0328476D03*
X0234500Y0328476D03*
X0239500Y0328476D03*
X0244500Y0328476D03*
X0249500Y0328476D03*
X0187500Y0328476D03*
X0182500Y0328476D03*
X0177500Y0328476D03*
X0172500Y0328476D03*
X0167500Y0328476D03*
X0162500Y0328476D03*
X0157500Y0328476D03*
X0157500Y0350524D03*
X0162500Y0350524D03*
X0167500Y0350524D03*
X0172500Y0350524D03*
X0177500Y0350524D03*
X0182500Y0350524D03*
X0187500Y0350524D03*
X0125500Y0350524D03*
X0120500Y0350524D03*
X0115500Y0350524D03*
X0110500Y0350524D03*
X0105500Y0350524D03*
X0100500Y0350524D03*
X0095500Y0350524D03*
X0095500Y0328476D03*
X0100500Y0328476D03*
X0105500Y0328476D03*
X0110500Y0328476D03*
X0115500Y0328476D03*
X0120500Y0328476D03*
X0125500Y0328476D03*
X0063500Y0328476D03*
X0058500Y0328476D03*
X0053500Y0328476D03*
X0048500Y0328476D03*
X0043500Y0328476D03*
X0038500Y0328476D03*
X0033500Y0328476D03*
X0033500Y0350524D03*
X0038500Y0350524D03*
X0043500Y0350524D03*
X0048500Y0350524D03*
X0053500Y0350524D03*
X0058500Y0350524D03*
X0063500Y0350524D03*
X0063500Y0098524D03*
X0058500Y0098524D03*
X0053500Y0098524D03*
X0048500Y0098524D03*
X0043500Y0098524D03*
X0038500Y0098524D03*
X0033500Y0098524D03*
X0033500Y0076476D03*
X0038500Y0076476D03*
X0043500Y0076476D03*
X0048500Y0076476D03*
X0053500Y0076476D03*
X0058500Y0076476D03*
X0063500Y0076476D03*
X0095500Y0076476D03*
X0100500Y0076476D03*
X0105500Y0076476D03*
X0110500Y0076476D03*
X0115500Y0076476D03*
X0120500Y0076476D03*
X0125500Y0076476D03*
X0125500Y0098524D03*
X0120500Y0098524D03*
X0115500Y0098524D03*
X0110500Y0098524D03*
X0105500Y0098524D03*
X0100500Y0098524D03*
X0095500Y0098524D03*
X0157500Y0098524D03*
X0162500Y0098524D03*
X0167500Y0098524D03*
X0172500Y0098524D03*
X0177500Y0098524D03*
X0182500Y0098524D03*
X0187500Y0098524D03*
X0187500Y0076476D03*
X0182500Y0076476D03*
X0177500Y0076476D03*
X0172500Y0076476D03*
X0167500Y0076476D03*
X0162500Y0076476D03*
X0157500Y0076476D03*
X0219500Y0076476D03*
X0224500Y0076476D03*
X0229500Y0076476D03*
X0234500Y0076476D03*
X0239500Y0076476D03*
X0244500Y0076476D03*
X0249500Y0076476D03*
X0249500Y0098524D03*
X0244500Y0098524D03*
X0239500Y0098524D03*
X0234500Y0098524D03*
X0229500Y0098524D03*
X0224500Y0098524D03*
X0219500Y0098524D03*
X0281500Y0098524D03*
X0286500Y0098524D03*
X0291500Y0098524D03*
X0296500Y0098524D03*
X0301500Y0098524D03*
X0306500Y0098524D03*
X0311500Y0098524D03*
X0311500Y0076476D03*
X0306500Y0076476D03*
X0301500Y0076476D03*
X0296500Y0076476D03*
X0291500Y0076476D03*
X0286500Y0076476D03*
X0281500Y0076476D03*
D18*
X0033500Y0045000D03*
X0043500Y0045000D03*
X0053500Y0045000D03*
X0063500Y0045000D03*
X0073500Y0045000D03*
X0083500Y0045000D03*
X0095500Y0045000D03*
X0105500Y0045000D03*
X0115500Y0045000D03*
X0125500Y0045000D03*
X0135500Y0045000D03*
X0145500Y0045000D03*
X0157500Y0045000D03*
X0167500Y0045000D03*
X0177500Y0045000D03*
X0187500Y0045000D03*
X0197500Y0045000D03*
X0207500Y0045000D03*
X0219500Y0045000D03*
X0229500Y0045000D03*
X0239500Y0045000D03*
X0249500Y0045000D03*
X0259500Y0045000D03*
X0269500Y0045000D03*
X0281500Y0045000D03*
X0291500Y0045000D03*
X0301500Y0045000D03*
X0311500Y0045000D03*
X0321500Y0045000D03*
X0331500Y0045000D03*
X0331500Y0297000D03*
X0321500Y0297000D03*
X0311500Y0297000D03*
X0301500Y0297000D03*
X0291500Y0297000D03*
X0281500Y0297000D03*
X0269500Y0297000D03*
X0259500Y0297000D03*
X0249500Y0297000D03*
X0239500Y0297000D03*
X0229500Y0297000D03*
X0219500Y0297000D03*
X0207500Y0297000D03*
X0197500Y0297000D03*
X0187500Y0297000D03*
X0177500Y0297000D03*
X0167500Y0297000D03*
X0157500Y0297000D03*
X0145500Y0297000D03*
X0135500Y0297000D03*
X0125500Y0297000D03*
X0115500Y0297000D03*
X0105500Y0297000D03*
X0095500Y0297000D03*
X0083500Y0297000D03*
X0073500Y0297000D03*
X0063500Y0297000D03*
X0053500Y0297000D03*
X0043500Y0297000D03*
X0033500Y0297000D03*
D19*
X0058500Y0265000D03*
X0120500Y0265000D03*
X0182500Y0265000D03*
X0244500Y0265000D03*
X0306500Y0265000D03*
X0306500Y0517000D03*
X0244500Y0517000D03*
X0182500Y0517000D03*
X0120500Y0517000D03*
X0058500Y0517000D03*
D20*
X0033500Y0522000D03*
X0095500Y0522000D03*
X0157500Y0522000D03*
X0219500Y0522000D03*
X0281500Y0522000D03*
X0264500Y0314500D03*
X0281500Y0270000D03*
X0326500Y0314500D03*
X0219500Y0270000D03*
X0202500Y0314500D03*
X0157500Y0270000D03*
X0140500Y0314500D03*
X0095500Y0270000D03*
X0078500Y0314500D03*
X0033500Y0270000D03*
X0078500Y0062500D03*
X0140500Y0062500D03*
X0202500Y0062500D03*
X0264500Y0062500D03*
X0326500Y0062500D03*
D21*
X0297051Y0117776D03*
X0294689Y0117776D03*
X0292327Y0117776D03*
X0289965Y0117776D03*
X0287602Y0117776D03*
X0285240Y0117776D03*
X0282878Y0117776D03*
X0235051Y0117776D03*
X0232689Y0117776D03*
X0230327Y0117776D03*
X0227965Y0117776D03*
X0225602Y0117776D03*
X0223240Y0117776D03*
X0220878Y0117776D03*
X0173051Y0117776D03*
X0170689Y0117776D03*
X0168327Y0117776D03*
X0165965Y0117776D03*
X0163602Y0117776D03*
X0161240Y0117776D03*
X0158878Y0117776D03*
X0111051Y0117776D03*
X0108689Y0117776D03*
X0106327Y0117776D03*
X0103965Y0117776D03*
X0101602Y0117776D03*
X0099240Y0117776D03*
X0096878Y0117776D03*
X0049051Y0117776D03*
X0046689Y0117776D03*
X0044327Y0117776D03*
X0041965Y0117776D03*
X0039602Y0117776D03*
X0037240Y0117776D03*
X0034878Y0117776D03*
X0034878Y0369776D03*
X0037240Y0369776D03*
X0039602Y0369776D03*
X0041965Y0369776D03*
X0044327Y0369776D03*
X0046689Y0369776D03*
X0049051Y0369776D03*
X0096878Y0369776D03*
X0099240Y0369776D03*
X0101602Y0369776D03*
X0103965Y0369776D03*
X0106327Y0369776D03*
X0108689Y0369776D03*
X0111051Y0369776D03*
X0158878Y0369776D03*
X0161240Y0369776D03*
X0163602Y0369776D03*
X0165965Y0369776D03*
X0168327Y0369776D03*
X0170689Y0369776D03*
X0173051Y0369776D03*
X0220878Y0369776D03*
X0223240Y0369776D03*
X0225602Y0369776D03*
X0227965Y0369776D03*
X0230327Y0369776D03*
X0232689Y0369776D03*
X0235051Y0369776D03*
X0282878Y0369776D03*
X0285240Y0369776D03*
X0287602Y0369776D03*
X0289965Y0369776D03*
X0292327Y0369776D03*
X0294689Y0369776D03*
X0297051Y0369776D03*
D22*
X0295870Y0358909D03*
X0293508Y0358909D03*
X0291146Y0358909D03*
X0288783Y0358909D03*
X0286421Y0358909D03*
X0284059Y0358909D03*
X0233870Y0358909D03*
X0231508Y0358909D03*
X0229146Y0358909D03*
X0226783Y0358909D03*
X0224421Y0358909D03*
X0222059Y0358909D03*
X0171870Y0358909D03*
X0169508Y0358909D03*
X0167146Y0358909D03*
X0164783Y0358909D03*
X0162421Y0358909D03*
X0160059Y0358909D03*
X0109870Y0358909D03*
X0107508Y0358909D03*
X0105146Y0358909D03*
X0102783Y0358909D03*
X0100421Y0358909D03*
X0098059Y0358909D03*
X0047870Y0358909D03*
X0045508Y0358909D03*
X0043146Y0358909D03*
X0040783Y0358909D03*
X0038421Y0358909D03*
X0036059Y0358909D03*
X0036059Y0106909D03*
X0038421Y0106909D03*
X0040783Y0106909D03*
X0043146Y0106909D03*
X0045508Y0106909D03*
X0047870Y0106909D03*
X0098059Y0106909D03*
X0100421Y0106909D03*
X0102783Y0106909D03*
X0105146Y0106909D03*
X0107508Y0106909D03*
X0109870Y0106909D03*
X0160059Y0106909D03*
X0162421Y0106909D03*
X0164783Y0106909D03*
X0167146Y0106909D03*
X0169508Y0106909D03*
X0171870Y0106909D03*
X0222059Y0106909D03*
X0224421Y0106909D03*
X0226783Y0106909D03*
X0229146Y0106909D03*
X0231508Y0106909D03*
X0233870Y0106909D03*
X0284059Y0106909D03*
X0286421Y0106909D03*
X0288783Y0106909D03*
X0291146Y0106909D03*
X0293508Y0106909D03*
X0295870Y0106909D03*
M02*
